<svg xmlns="http://www.w3.org/2000/svg" xmlns:xlink="http://www.w3.org/1999/xlink" width="225.999" height="77.918" viewBox="0 0 225.999 77.918">
  <defs>
    <linearGradient id="linear-gradient" x1="0.5" y1="1" x2="0.5" gradientUnits="objectBoundingBox">
      <stop offset="0.006" stop-color="#89be5e"/>
      <stop offset="1" stop-color="#c2e895"/>
    </linearGradient>
    <clipPath id="clip-path">
      <path id="Path_1369" data-name="Path 1369" d="M-481.365,818.213V790.754h0a6.772,6.772,0,0,0,6.674-6.865v-7.067a6.573,6.573,0,0,0-6.478-6.663H-684.944a6.573,6.573,0,0,0-6.478,6.663v7.067a6.772,6.772,0,0,0,6.675,6.865h0v27.459h0a6.772,6.772,0,0,0-6.675,6.865v7.067a6.573,6.573,0,0,0,6.478,6.663h203.775a6.573,6.573,0,0,0,6.478-6.663v-7.067a6.772,6.772,0,0,0-6.674-6.865Z" transform="translate(691.422 -770.158)" fill="none"/>
    </clipPath>
  </defs>
  <g id="Group_51" data-name="Group 51" transform="translate(-459 -79)">
    <g id="Group_50" data-name="Group 50" transform="translate(459 79)">
      <g id="Group_46" data-name="Group 46">
        <path id="Path_1366" data-name="Path 1366" d="M-481.365,818.213V790.754h0a6.772,6.772,0,0,0,6.674-6.865v-7.067a6.573,6.573,0,0,0-6.478-6.663H-684.944a6.573,6.573,0,0,0-6.478,6.663v7.067a6.772,6.772,0,0,0,6.675,6.865h0v27.459h0a6.772,6.772,0,0,0-6.675,6.865v7.067a6.573,6.573,0,0,0,6.478,6.663h203.775a6.573,6.573,0,0,0,6.478-6.663v-7.067a6.772,6.772,0,0,0-6.674-6.865Z" transform="translate(696.056 -765.524)" fill="url(#linear-gradient)"/>
        <path id="Path_1367" data-name="Path 1367" d="M-489.828,764.167a6.4,6.4,0,0,1,6.4,6.4v6.784a6.59,6.59,0,0,1-6.59,6.59V810.3a6.59,6.59,0,0,1,6.59,6.59v6.784a6.4,6.4,0,0,1-6.4,6.4H-691.017a6.4,6.4,0,0,1-6.4-6.4v-6.784a6.59,6.59,0,0,1,6.59-6.59h0V783.937h0a6.59,6.59,0,0,1-6.59-6.59v-6.784a6.4,6.4,0,0,1,6.4-6.4h201.189m0-6.009H-691.017a12.419,12.419,0,0,0-12.4,12.405v6.784a12.611,12.611,0,0,0,6.59,11.071v17.4a12.609,12.609,0,0,0-6.59,11.071v6.784a12.419,12.419,0,0,0,12.4,12.405h201.189a12.419,12.419,0,0,0,12.4-12.405v-6.784a12.608,12.608,0,0,0-6.59-11.071v-17.4a12.61,12.61,0,0,0,6.59-11.071v-6.784a12.419,12.419,0,0,0-12.4-12.405Z" transform="translate(703.422 -758.158)" fill="#608a43"/>
        <g id="Group_45" data-name="Group 45" transform="translate(4.634 4.634)" opacity="0.5">
          <g id="Group_44" data-name="Group 44" clip-path="url(#clip-path)">
            <path id="Path_1368" data-name="Path 1368" d="M-717.935,823.277v-5.228h89.118v14.07h33.765V803.98h59.807v18.187h58.237v5.228h-63.32V809.208h-49.641v28.14H-633.9v-14.07Z" transform="translate(704.489 -786.338)" fill="#fff"/>
          </g>
        </g>
      </g>
      <g id="Group_49" data-name="Group 49" transform="translate(92.682 23.321)">
        <g id="Group_47" data-name="Group 47">
          <path id="Path_1370" data-name="Path 1370" d="M-511.726,828.459l-5.852-.015q-2.786,0-2.786-1.754,0-1.975,3.11-1.975.294,0,.648.015V811.656a4.5,4.5,0,0,1-1.665.884,2,2,0,0,1-1.437-.59,1.847,1.847,0,0,1-.612-1.371,2.329,2.329,0,0,1,.988-1.665l1.665-1.209,1.8-1.445a3.682,3.682,0,0,1,2.137-.8q1.326,0,1.327,1.592,0,1.755-.147,4.938t-.148,9.094v3.567h.973a2.023,2.023,0,0,1,1.437.545,1.783,1.783,0,0,1,.582,1.356,1.782,1.782,0,0,1-.582,1.356A2.021,2.021,0,0,1-511.726,828.459Z" transform="translate(524.225 -801.604)" fill="#fff"/>
          <path id="Path_1371" data-name="Path 1371" d="M-519.868,799.328q1.326,0,1.327,1.592,0,1.754-.147,4.938t-.148,9.094v3.567h.973a2.023,2.023,0,0,1,1.437.545,1.783,1.783,0,0,1,.582,1.356,1.782,1.782,0,0,1-.582,1.356,2.021,2.021,0,0,1-1.437.545l-5.852-.015q-2.786,0-2.786-1.754,0-1.975,3.11-1.975.294,0,.648.015V805.518a4.494,4.494,0,0,1-1.665.884,2,2,0,0,1-1.437-.59,1.847,1.847,0,0,1-.612-1.371,2.329,2.329,0,0,1,.988-1.665l1.665-1.209,1.8-1.445a3.682,3.682,0,0,1,2.137-.8m0-3.861a7.453,7.453,0,0,0-4.393,1.524q-.083.06-.162.123l-1.725,1.385-1.589,1.153q-.134.1-.259.206a5.986,5.986,0,0,0-2.321,4.584,5.73,5.73,0,0,0,1.795,4.152,5.946,5.946,0,0,0,1.92,1.253v5.386a5.523,5.523,0,0,0-3.759,5.32c0,2.59,1.741,5.614,6.646,5.614l5.842.015a5.86,5.86,0,0,0,4.085-1.588,5.662,5.662,0,0,0,1.8-4.174,5.66,5.66,0,0,0-1.8-4.172,5.9,5.9,0,0,0-1.19-.866v-.43c0-3.862.048-6.862.144-8.916.1-2.208.151-3.881.151-5.116a5.094,5.094,0,0,0-5.187-5.453Z" transform="translate(530.362 -795.467)" fill="#608a43"/>
        </g>
        <g id="Group_48" data-name="Group 48" transform="translate(15.256 0.059)">
          <path id="Path_1372" data-name="Path 1372" d="M-472.159,829.113a7.413,7.413,0,0,1-7.075-4.215,17.477,17.477,0,0,1-1.621-8.063,12.96,12.96,0,0,1,2.137-7.4,8.028,8.028,0,0,1,7.016-3.818,7.479,7.479,0,0,1,6.545,3.4,12.028,12.028,0,0,1,1.96,6.942q0,6.574-2.24,9.861A7.592,7.592,0,0,1-472.159,829.113Zm.442-19.663a4.347,4.347,0,0,0-3.832,2.373,8.965,8.965,0,0,0-1.268,4.79,17.6,17.6,0,0,0,.678,5.542q1.091,3.14,3.979,3.14a3.9,3.9,0,0,0,3.626-2.2,14.151,14.151,0,0,0,1.209-6.611,10.108,10.108,0,0,0-1.1-5.277A3.631,3.631,0,0,0-471.717,809.45Z" transform="translate(484.716 -801.758)" fill="#fff"/>
          <path id="Path_1373" data-name="Path 1373" d="M-477.839,799.481a7.48,7.48,0,0,1,6.545,3.4,12.028,12.028,0,0,1,1.96,6.942q0,6.574-2.24,9.861a7.592,7.592,0,0,1-6.721,3.287,7.414,7.414,0,0,1-7.075-4.215,17.477,17.477,0,0,1-1.621-8.063,12.96,12.96,0,0,1,2.137-7.4,8.028,8.028,0,0,1,7.016-3.818m-.457,19.677a3.9,3.9,0,0,0,3.626-2.2,14.151,14.151,0,0,0,1.209-6.611,10.108,10.108,0,0,0-1.1-5.277,3.631,3.631,0,0,0-3.294-1.754,4.346,4.346,0,0,0-3.832,2.373,8.965,8.965,0,0,0-1.268,4.79,17.608,17.608,0,0,0,.678,5.542q1.091,3.139,3.98,3.139m.457-23.537a11.869,11.869,0,0,0-10.221,5.525,16.809,16.809,0,0,0-2.793,9.552,21.307,21.307,0,0,0,2.055,9.841,11.2,11.2,0,0,0,10.5,6.3,11.421,11.421,0,0,0,9.911-4.973c1.959-2.873,2.911-6.81,2.911-12.035a15.86,15.86,0,0,0-2.631-9.117,11.319,11.319,0,0,0-9.734-5.09Zm-.537,19.675a2.312,2.312,0,0,1-.253-.544,13.719,13.719,0,0,1-.464-4.275,5.149,5.149,0,0,1,.7-2.77,1.533,1.533,0,0,1,.432-.523.409.409,0,0,1,.11-.01h.056a7.168,7.168,0,0,1,.476,3.169c0,3.085-.513,4.352-.733,4.754a1.347,1.347,0,0,1-.125.194,1.1,1.1,0,0,1-.115.006c-.032,0-.059,0-.081,0Z" transform="translate(490.853 -795.621)" fill="#608a43"/>
        </g>
      </g>
    </g>
  </g>
</svg>
