<svg xmlns="http://www.w3.org/2000/svg" xmlns:xlink="http://www.w3.org/1999/xlink" width="226" height="77.918" viewBox="0 0 226 77.918">
  <defs>
    <linearGradient id="linear-gradient" x1="0.5" y1="1" x2="0.5" gradientUnits="objectBoundingBox">
      <stop offset="0.006" stop-color="#89be5e"/>
      <stop offset="1" stop-color="#c2e895"/>
    </linearGradient>
    <clipPath id="clip-path">
      <path id="Path_1357" data-name="Path 1357" d="M-484.085,386.829V360.492h0a6.586,6.586,0,0,0,6.588-6.584V347.13a6.392,6.392,0,0,0-6.394-6.391H-685.028a6.392,6.392,0,0,0-6.394,6.391v6.778a6.586,6.586,0,0,0,6.588,6.584h0v26.337h0a6.586,6.586,0,0,0-6.588,6.584v6.778a6.392,6.392,0,0,0,6.394,6.391h201.137a6.392,6.392,0,0,0,6.394-6.391v-6.778a6.586,6.586,0,0,0-6.588-6.584Z" transform="translate(691.422 -340.739)" fill="none"/>
    </clipPath>
  </defs>
  <g id="Group_36" data-name="Group 36" transform="translate(-443.46 -311.921)">
    <g id="Group_35" data-name="Group 35" transform="translate(443.46 311.921)">
      <g id="Group_32" data-name="Group 32" transform="translate(0)">
        <path id="Path_1354" data-name="Path 1354" d="M-484.085,386.829V360.492h0a6.586,6.586,0,0,0,6.588-6.584V347.13a6.392,6.392,0,0,0-6.394-6.391H-685.028a6.392,6.392,0,0,0-6.394,6.391v6.778a6.586,6.586,0,0,0,6.588,6.584h0v26.337h0a6.586,6.586,0,0,0-6.588,6.584v6.778a6.392,6.392,0,0,0,6.394,6.391h201.137a6.392,6.392,0,0,0,6.394-6.391v-6.778a6.586,6.586,0,0,0-6.588-6.584Z" transform="translate(697.459 -334.702)" fill="url(#linear-gradient)"/>
        <path id="Path_1355" data-name="Path 1355" d="M-489.827,334.748a6.4,6.4,0,0,1,6.4,6.4v6.784a6.59,6.59,0,0,1-6.59,6.59v26.36a6.59,6.59,0,0,1,6.59,6.59v6.784a6.4,6.4,0,0,1-6.4,6.4H-691.017a6.4,6.4,0,0,1-6.4-6.4v-6.784a6.59,6.59,0,0,1,6.59-6.59h0v-26.36h0a6.59,6.59,0,0,1-6.59-6.59v-6.784a6.4,6.4,0,0,1,6.4-6.4h201.191m0-6.009H-691.017a12.419,12.419,0,0,0-12.4,12.4v6.784A12.61,12.61,0,0,0-696.832,359v17.4a12.611,12.611,0,0,0-6.59,11.071v6.784a12.419,12.419,0,0,0,12.4,12.4h201.191a12.419,12.419,0,0,0,12.4-12.4v-6.784a12.61,12.61,0,0,0-6.59-11.071V359a12.609,12.609,0,0,0,6.59-11.071v-6.784a12.419,12.419,0,0,0-12.4-12.4Z" transform="translate(703.422 -328.739)" fill="#608a43"/>
        <g id="Group_31" data-name="Group 31" transform="translate(6.037 6.037)" opacity="0.5">
          <g id="Group_30" data-name="Group 30" clip-path="url(#clip-path)">
            <path id="Path_1356" data-name="Path 1356" d="M-717.935,393.069v-5.014h87.964v13.495h33.328V374.56h59.033V392h57.483v5.014h-62.5V379.574h-49v26.989h-43.362V393.069Z" transform="translate(704.663 -357.64)" fill="#fff"/>
          </g>
        </g>
      </g>
      <g id="Group_34" data-name="Group 34" transform="translate(99.453 19.994)">
        <g id="Group_33" data-name="Group 33" transform="translate(0 0)">
          <path id="Path_1358" data-name="Path 1358" d="M-481.643,390.024a7.625,7.625,0,0,1,4.022,7.184,8.923,8.923,0,0,1-2.948,6.755,10.074,10.074,0,0,1-7.165,2.773,12.407,12.407,0,0,1-5.661-1.269,7.684,7.684,0,0,1-3.924-4.217,2.439,2.439,0,0,1-.156-.879,2.254,2.254,0,0,1,.878-1.815,2.9,2.9,0,0,1,1.874-.664,2.354,2.354,0,0,1,1.972.976,20.074,20.074,0,0,0,1.445,1.835,5.593,5.593,0,0,0,3.573.976,5.061,5.061,0,0,0,3.251-1.113,3.325,3.325,0,0,0,1.4-2.674q0-4.861-6.54-5.506-2.87-.272-2.87-2.4,0-1.62,2.225-2.362,2.109-.469,4.2-.956a4.772,4.772,0,0,0,1.991-1.074,2.232,2.232,0,0,0,.684-1.581q.078-2.909-4.549-2.909a6.309,6.309,0,0,0-3.338,1.162,6.215,6.215,0,0,1-2.479,1.161,2.547,2.547,0,0,1-1.894-.8,2.532,2.532,0,0,1-.781-1.816q0-1.659,3.28-3.3a11.4,11.4,0,0,1,4.763-1.464,12.058,12.058,0,0,1,7.126,1.913,6.95,6.95,0,0,1,2.948,6.013,7.51,7.51,0,0,1-.83,3.661A5.893,5.893,0,0,1-481.643,390.024Z" transform="translate(501.096 -372.426)" fill="#fff"/>
          <path id="Path_1359" data-name="Path 1359" d="M-491.973,372.471a12.058,12.058,0,0,1,7.126,1.913A6.95,6.95,0,0,1-481.9,380.4a7.51,7.51,0,0,1-.83,3.661,5.893,5.893,0,0,1-2.489,2.391,7.625,7.625,0,0,1,4.022,7.184,8.923,8.923,0,0,1-2.948,6.755,10.074,10.074,0,0,1-7.165,2.773,12.407,12.407,0,0,1-5.661-1.269,7.684,7.684,0,0,1-3.924-4.217,2.439,2.439,0,0,1-.156-.879,2.254,2.254,0,0,1,.878-1.815,2.9,2.9,0,0,1,1.874-.664,2.354,2.354,0,0,1,1.972.976,20.074,20.074,0,0,0,1.445,1.835,5.593,5.593,0,0,0,3.573.976,5.061,5.061,0,0,0,3.251-1.113,3.325,3.325,0,0,0,1.4-2.674q0-4.861-6.54-5.506-2.87-.272-2.87-2.4,0-1.62,2.225-2.362,2.109-.469,4.2-.956a4.772,4.772,0,0,0,1.991-1.074,2.232,2.232,0,0,0,.684-1.581q.078-2.909-4.549-2.909a6.31,6.31,0,0,0-3.338,1.162,6.215,6.215,0,0,1-2.479,1.161,2.547,2.547,0,0,1-1.894-.8,2.532,2.532,0,0,1-.781-1.816q0-1.659,3.28-3.3a11.4,11.4,0,0,1,4.763-1.464m0-3.62a14.637,14.637,0,0,0-6.382,1.846c-1.307.654-5.281,2.641-5.281,6.537a6.126,6.126,0,0,0,1.81,4.344,6.139,6.139,0,0,0,3.049,1.733,5.709,5.709,0,0,0-.916,3.1,5.728,5.728,0,0,0,1.844,4.3q-.223-.015-.45-.015a6.531,6.531,0,0,0-4.151,1.47l-.021.018a5.882,5.882,0,0,0-2.2,4.611,6.054,6.054,0,0,0,.388,2.153,11.226,11.226,0,0,0,5.667,6.167,16.057,16.057,0,0,0,7.306,1.664,13.63,13.63,0,0,0,9.645-3.755,12.615,12.615,0,0,0,4.088-9.391,11.719,11.719,0,0,0-2.294-7.3q.166-.26.315-.533a11.1,11.1,0,0,0,1.275-5.4,10.552,10.552,0,0,0-4.462-8.957,15.62,15.62,0,0,0-9.232-2.589Zm-.528,25.5c-.167-.213-.452-.584-.922-1.215l-.023-.03a6.407,6.407,0,0,0-.677-.759q.28.042.576.07c2.964.292,3.236,1.1,3.261,1.722l-.03.025a1.457,1.457,0,0,1-.994.323,3.982,3.982,0,0,1-1.191-.137Z" transform="translate(504.671 -368.851)" fill="#608a43"/>
        </g>
      </g>
    </g>
  </g>
</svg>
