<svg xmlns="http://www.w3.org/2000/svg" xmlns:xlink="http://www.w3.org/1999/xlink" width="226" height="77.918" viewBox="0 0 226 77.918">
  <defs>
    <linearGradient id="linear-gradient" x1="0.5" y1="1" x2="0.5" gradientUnits="objectBoundingBox">
      <stop offset="0.006" stop-color="#89be5e"/>
      <stop offset="1" stop-color="#c2e895"/>
    </linearGradient>
    <clipPath id="clip-path">
      <path id="Path_1363" data-name="Path 1363" d="M-520.983,580.572V553.981h0a6.628,6.628,0,0,0,6.608-6.648v-6.844a6.433,6.433,0,0,0-6.413-6.453H-722.524a6.434,6.434,0,0,0-6.414,6.453v6.844a6.628,6.628,0,0,0,6.608,6.648h0v26.591h0a6.628,6.628,0,0,0-6.608,6.648v6.844a6.434,6.434,0,0,0,6.414,6.453h201.735a6.433,6.433,0,0,0,6.413-6.453V587.22a6.628,6.628,0,0,0-6.608-6.648Z" transform="translate(728.938 -534.036)" fill="none"/>
    </clipPath>
  </defs>
  <g id="Group_43" data-name="Group 43" transform="translate(-460 -240)">
    <g id="Group_42" data-name="Group 42" transform="translate(460 240)">
      <g id="Group_39" data-name="Group 39" transform="translate(0)">
        <path id="Path_1360" data-name="Path 1360" d="M-520.983,580.572V553.981h0a6.628,6.628,0,0,0,6.608-6.648v-6.844a6.433,6.433,0,0,0-6.413-6.453H-722.524a6.434,6.434,0,0,0-6.414,6.453v6.844a6.628,6.628,0,0,0,6.608,6.648h0v26.591h0a6.628,6.628,0,0,0-6.608,6.648v6.844a6.434,6.434,0,0,0,6.414,6.453h201.735a6.433,6.433,0,0,0,6.413-6.453V587.22a6.628,6.628,0,0,0-6.608-6.648Z" transform="translate(734.657 -528.317)" fill="url(#linear-gradient)"/>
        <path id="Path_1361" data-name="Path 1361" d="M-527.343,528.045a6.4,6.4,0,0,1,6.4,6.4v6.784a6.59,6.59,0,0,1-6.59,6.59v26.36a6.59,6.59,0,0,1,6.59,6.59v6.784a6.4,6.4,0,0,1-6.4,6.4h-201.19a6.4,6.4,0,0,1-6.4-6.4v-6.784a6.59,6.59,0,0,1,6.59-6.59h0v-26.36h0a6.59,6.59,0,0,1-6.59-6.59v-6.784a6.4,6.4,0,0,1,6.4-6.4h201.19m0-6.009h-201.19a12.419,12.419,0,0,0-12.405,12.405v6.784a12.61,12.61,0,0,0,6.59,11.071v17.4a12.61,12.61,0,0,0-6.59,11.071v6.784a12.419,12.419,0,0,0,12.405,12.405h201.19a12.419,12.419,0,0,0,12.4-12.405v-6.784a12.609,12.609,0,0,0-6.59-11.071V552.3a12.608,12.608,0,0,0,6.59-11.071v-6.784a12.419,12.419,0,0,0-12.4-12.405Z" transform="translate(740.938 -522.036)" fill="#608a43"/>
        <g id="Group_38" data-name="Group 38" transform="translate(5.719 5.719)" opacity="0.5">
          <g id="Group_37" data-name="Group 37" clip-path="url(#clip-path)">
            <path id="Path_1362" data-name="Path 1362" d="M-755.45,586.545v-5.063h88.226v13.625H-633.8v-27.25h59.209V585.47h57.654v5.063h-62.686V572.92h-49.145v27.25h-43.491V586.545Z" transform="translate(742.139 -550.774)" fill="#fff"/>
          </g>
        </g>
      </g>
      <g id="Group_41" data-name="Group 41" transform="translate(98.904 20.385)">
        <g id="Group_40" data-name="Group 40" transform="translate(0 0)">
          <path id="Path_1364" data-name="Path 1364" d="M-527.714,598.413q-5.559,0-8.194-3.961a2.423,2.423,0,0,1-.454-1.326,2.152,2.152,0,0,1,.781-1.672,2.614,2.614,0,0,1,1.78-.69,2.322,2.322,0,0,1,1.744.763q1.272,1.326,1.381,1.417a5.031,5.031,0,0,0,2.962.763,6.058,6.058,0,0,0,4.67-2.054,6.879,6.879,0,0,0,1.8-4.8,7.351,7.351,0,0,0-.9-4.051,3.047,3.047,0,0,0-2.716-1.345A6.719,6.719,0,0,0-530,583.533q-.763.872-1.545,1.726a3.012,3.012,0,0,1-2.09.926,2.4,2.4,0,0,1-1.753-.709,2.271,2.271,0,0,1-.718-1.671q0-.418.309-3.161.6-5.324.6-7.086a3.389,3.389,0,0,0-.318-1.2,3.377,3.377,0,0,1-.318-1.2,1.49,1.49,0,0,1,.927-1.381,3.776,3.776,0,0,1,1.708-.364q.363,0,1.1.064t1.1.063l8.74.018q.327,0,1.4-.109t1.417-.109a2.208,2.208,0,0,1,1.617.627,2.16,2.16,0,0,1,.636,1.608q0,2.708-5.505,2.707-.436,0-1.1-.018t-.881-.019h-5.414q-.054,1.109-.455,3.67a12.846,12.846,0,0,1,5.687-1.163,7.65,7.65,0,0,1,6.7,3.289,11.542,11.542,0,0,1,1.908,6.813,11.439,11.439,0,0,1-3.052,8.176A11.01,11.01,0,0,1-527.714,598.413Z" transform="translate(540.401 -565.304)" fill="#fff"/>
          <path id="Path_1365" data-name="Path 1365" d="M-523.884,564.906a2.208,2.208,0,0,1,1.617.627,2.16,2.16,0,0,1,.636,1.608q0,2.708-5.505,2.707-.436,0-1.1-.018t-.881-.019h-5.414q-.054,1.109-.455,3.67a12.846,12.846,0,0,1,5.687-1.163,7.65,7.65,0,0,1,6.7,3.289,11.542,11.542,0,0,1,1.908,6.813,11.439,11.439,0,0,1-3.052,8.176,11.01,11.01,0,0,1-8.412,3.379q-5.559,0-8.194-3.961a2.422,2.422,0,0,1-.454-1.326,2.152,2.152,0,0,1,.781-1.672,2.614,2.614,0,0,1,1.78-.69,2.322,2.322,0,0,1,1.744.763q1.272,1.326,1.381,1.417a5.031,5.031,0,0,0,2.962.763,6.058,6.058,0,0,0,4.67-2.054,6.879,6.879,0,0,0,1.8-4.8,7.35,7.35,0,0,0-.9-4.051,3.047,3.047,0,0,0-2.716-1.345,6.719,6.719,0,0,0-5.142,2.072q-.763.872-1.545,1.726a3.011,3.011,0,0,1-2.09.927,2.4,2.4,0,0,1-1.753-.709,2.271,2.271,0,0,1-.718-1.671q0-.418.309-3.161.6-5.323.6-7.086a3.39,3.39,0,0,0-.318-1.2,3.374,3.374,0,0,1-.318-1.2,1.49,1.49,0,0,1,.927-1.381,3.776,3.776,0,0,1,1.708-.364q.363,0,1.1.064t1.1.063l8.74.018q.327,0,1.4-.109t1.417-.109m0-4.039c-.273,0-.7.016-1.826.13-.708.072-.958.086-1.016.088l-8.705-.018c-.028,0-.214,0-.759-.049-.62-.054-1.08-.079-1.448-.079a7.783,7.783,0,0,0-3.513.789l-.031.015a5.537,5.537,0,0,0-3.13,4.979,7.064,7.064,0,0,0,.63,2.754h0c-.029.872-.159,2.651-.568,6.278-.309,2.741-.334,3.274-.334,3.614a6.269,6.269,0,0,0,1.92,4.546l.028.027-.056.049a6.2,6.2,0,0,0-2.146,4.7,6.389,6.389,0,0,0,1.119,3.547c1.759,2.645,5.184,5.779,11.568,5.779a14.945,14.945,0,0,0,11.354-4.651,15.4,15.4,0,0,0,4.15-10.944,15.532,15.532,0,0,0-2.645-9.14,12.306,12.306,0,0,0-.876-1.117,6.05,6.05,0,0,0,2.577-5.023,6.151,6.151,0,0,0-1.84-4.484,6.208,6.208,0,0,0-4.453-1.789Zm-7.572,20.953a2.433,2.433,0,0,1,1.637-.731,7.731,7.731,0,0,1,.1,1.331,2.877,2.877,0,0,1-.749,2.081,2.032,2.032,0,0,1-1.68.73,3.431,3.431,0,0,1-.562-.039c-.184-.19-.458-.473-.865-.9l-.112-.115q.24-.2.479-.42.107-.1.207-.211c.523-.571,1.044-1.152,1.548-1.728Z" transform="translate(544.838 -560.867)" fill="#608a43"/>
        </g>
      </g>
    </g>
  </g>
</svg>
