<svg id="Group_28" data-name="Group 28" xmlns="http://www.w3.org/2000/svg" xmlns:xlink="http://www.w3.org/1999/xlink" width="226.536" height="78.103" viewBox="0 0 226.536 78.103">
  <defs>
    <linearGradient id="linear-gradient" x1="0.5" y1="1" x2="0.5" gradientUnits="objectBoundingBox">
      <stop offset="0.006" stop-color="#89be5e"/>
      <stop offset="1" stop-color="#c2e895"/>
    </linearGradient>
    <clipPath id="clip-path">
      <path id="Path_1337" data-name="Path 1337" d="M548.716,666.06V639.638h0a6.606,6.606,0,0,0,6.606-6.606v-6.8a6.412,6.412,0,0,0-6.412-6.412H347.242a6.411,6.411,0,0,0-6.411,6.412v6.8a6.606,6.606,0,0,0,6.606,6.606h0V666.06h0a6.606,6.606,0,0,0-6.606,6.606v6.8a6.412,6.412,0,0,0,6.411,6.412H548.909a6.412,6.412,0,0,0,6.412-6.412v-6.8a6.606,6.606,0,0,0-6.606-6.606Z" transform="translate(-340.831 -619.82)" fill="none"/>
    </clipPath>
  </defs>
  <g id="Group_18" data-name="Group 18">
    <path id="Path_1334" data-name="Path 1334" d="M548.716,666.06V639.638h0a6.606,6.606,0,0,0,6.606-6.606v-6.8a6.412,6.412,0,0,0-6.412-6.412H347.242a6.411,6.411,0,0,0-6.411,6.412v6.8a6.606,6.606,0,0,0,6.606,6.606h0V666.06h0a6.606,6.606,0,0,0-6.606,6.606v6.8a6.412,6.412,0,0,0,6.411,6.412H548.909a6.412,6.412,0,0,0,6.412-6.412v-6.8a6.606,6.606,0,0,0-6.606-6.606Z" transform="translate(-334.808 -613.797)" fill="url(#linear-gradient)"/>
    <path id="Path_1335" data-name="Path 1335" d="M542.932,613.843a6.412,6.412,0,0,1,6.412,6.412v6.8a6.606,6.606,0,0,1-6.606,6.606v26.422a6.606,6.606,0,0,1,6.606,6.605v6.8a6.412,6.412,0,0,1-6.412,6.412H341.265a6.412,6.412,0,0,1-6.411-6.412v-6.8a6.606,6.606,0,0,1,6.606-6.605h0V633.66h0a6.606,6.606,0,0,1-6.606-6.606v-6.8a6.411,6.411,0,0,1,6.411-6.412H542.932m0-6.023H341.265a12.448,12.448,0,0,0-12.434,12.435v6.8a12.638,12.638,0,0,0,6.605,11.1v17.439a12.64,12.64,0,0,0-6.605,11.1v6.8a12.448,12.448,0,0,0,12.434,12.435H542.932a12.449,12.449,0,0,0,12.435-12.435v-6.8a12.641,12.641,0,0,0-6.605-11.1V638.152a12.639,12.639,0,0,0,6.605-11.1v-6.8a12.449,12.449,0,0,0-12.435-12.435Z" transform="translate(-328.831 -607.82)" fill="#608a43"/>
    <g id="Group_17" data-name="Group 17" transform="translate(6.023 6.023)" opacity="0.5">
      <g id="Group_16" data-name="Group 16" clip-path="url(#clip-path)">
        <path id="Path_1336" data-name="Path 1336" d="M330.433,676.86V671.83h67.559v8.827h49.061V669.724h51.1l7.969,7.969H560.78v5.03H504.038l-7.969-7.969H452.083v10.933H392.961V676.86Z" transform="translate(-335.652 -644.677)" fill="#fff"/>
      </g>
    </g>
  </g>
  <g id="Group_27" data-name="Group 27" transform="translate(18.122 22.195)">
    <g id="Group_19" data-name="Group 19" transform="translate(0 1.689)">
      <path id="Path_1338" data-name="Path 1338" d="M380.432,687.226a10.364,10.364,0,0,1-6.5-1.836,4.393,4.393,0,0,1-2-3.524,2.416,2.416,0,0,1,.617-1.7,2.2,2.2,0,0,1,1.705-.674,2.249,2.249,0,0,1,2.144,1.494q.926,2,4.191,2A12.673,12.673,0,0,0,386,681.768q2.713-1.25,2.712-2.745a2.6,2.6,0,0,0-1.689-2.7,16.851,16.851,0,0,0-4.824-.552,13,13,0,0,1-5.035-1.055q-3-1.348-2.956-3.866.049-3.167,3.379-5.807a11.546,11.546,0,0,1,7.341-2.639,13.649,13.649,0,0,1,3.931.731q2.907.909,2.907,2.095a2.168,2.168,0,0,1-.585,1.495,2.136,2.136,0,0,1-1.673.731,11.95,11.95,0,0,1-2.282-.325,12.038,12.038,0,0,0-2.3-.325,8.577,8.577,0,0,0-3.979,1.007Q379,668.823,379,670.008a1.184,1.184,0,0,0,.593,1.015,4.3,4.3,0,0,0,1.779.561l4.142.227a9.826,9.826,0,0,1,5.7,2.03,6.681,6.681,0,0,1,2.306,5.392q0,4.191-4.775,6.351A20.043,20.043,0,0,1,380.432,687.226Z" transform="translate(-368.424 -658.894)" fill="#fff"/>
      <path id="Path_1339" data-name="Path 1339" d="M381.444,658.92a13.652,13.652,0,0,1,3.931.731q2.907.91,2.907,2.1a2.168,2.168,0,0,1-.585,1.495,2.136,2.136,0,0,1-1.673.731,11.952,11.952,0,0,1-2.282-.325,12.043,12.043,0,0,0-2.3-.325,8.579,8.579,0,0,0-3.979,1.007q-1.949,1.007-1.949,2.192a1.184,1.184,0,0,0,.593,1.015,4.294,4.294,0,0,0,1.779.561l4.142.227a9.826,9.826,0,0,1,5.7,2.03,6.682,6.682,0,0,1,2.306,5.392q0,4.19-4.775,6.351a20.042,20.042,0,0,1-8.316,1.64,10.365,10.365,0,0,1-6.5-1.835,4.393,4.393,0,0,1-2-3.524,2.415,2.415,0,0,1,.617-1.7,2.2,2.2,0,0,1,1.705-.674,2.249,2.249,0,0,1,2.144,1.494q.926,2,4.191,2a12.673,12.673,0,0,0,5.408-1.218q2.713-1.25,2.712-2.745a2.6,2.6,0,0,0-1.689-2.7,16.854,16.854,0,0,0-4.824-.552,13,13,0,0,1-5.035-1.055q-3-1.348-2.956-3.866.049-3.167,3.379-5.807a11.545,11.545,0,0,1,7.341-2.64m0-3.513a15.029,15.029,0,0,0-9.524,3.4c-3.075,2.437-4.659,5.3-4.709,8.506a7.005,7.005,0,0,0,2.243,5.312,5.5,5.5,0,0,0-2.978,1.685,5.914,5.914,0,0,0-1.539,4.07,7.781,7.781,0,0,0,3.377,6.316,13.788,13.788,0,0,0,8.631,2.557,23.606,23.606,0,0,0,9.76-1.951c5.658-2.559,6.844-6.608,6.844-9.554A10.2,10.2,0,0,0,390,667.672a10.833,10.833,0,0,0-1.207-.876,5.8,5.8,0,0,0,3-5.049c0-2.5-1.807-4.333-5.371-5.448a16.889,16.889,0,0,0-4.98-.891Zm-5.416,20.456c-.055-.113-.112-.224-.173-.333a18.368,18.368,0,0,0,2.779.27l.27.007a8.956,8.956,0,0,1-1.8.179,3.59,3.59,0,0,1-1.08-.123Z" transform="translate(-364.937 -655.407)" fill="#608a43"/>
    </g>
    <g id="Group_20" data-name="Group 20" transform="translate(23.551 1.364)">
      <path id="Path_1340" data-name="Path 1340" d="M436.338,683.1a10.685,10.685,0,0,1-2.858,2.68,7.756,7.756,0,0,1-4.207,1.3q-4.141,0-6.156-1.563-4.256-3.3-4.256-11.472,0-.781.081-2.329t.081-2.33q0-.622.033-1.859t.032-1.859a6.21,6.21,0,0,1,.471-2.409q.633-1.5,1.77-1.5a2.38,2.38,0,0,1,1.576.573,1.914,1.914,0,0,1,.747,1.557q0,.907-.025,2.742t-.024,2.758q0,.763-.081,2.3T423.441,674a17.138,17.138,0,0,0,.585,4.578,4.292,4.292,0,0,0,5.246,4.086q4.288.065,5.782-7.309a56.691,56.691,0,0,0,.779-10.72,3.229,3.229,0,0,1,.536-1.754,2.34,2.34,0,0,1,2.079-1.121,1.872,1.872,0,0,1,1.657.812,2.269,2.269,0,0,1,.422,1.332,64.226,64.226,0,0,1-.6,10.005A21.091,21.091,0,0,1,436.338,683.1Z" transform="translate(-415.348 -658.247)" fill="#fff"/>
      <path id="Path_1341" data-name="Path 1341" d="M434.963,658.273a1.872,1.872,0,0,1,1.657.812,2.269,2.269,0,0,1,.422,1.332,64.219,64.219,0,0,1-.6,10.005,21.09,21.09,0,0,1-3.59,9.193,10.685,10.685,0,0,1-2.858,2.68,7.756,7.756,0,0,1-4.207,1.3q-4.141,0-6.156-1.563-4.256-3.3-4.256-11.472,0-.782.081-2.33t.081-2.33q0-.622.033-1.859t.032-1.859a6.209,6.209,0,0,1,.471-2.409q.633-1.5,1.77-1.5a2.38,2.38,0,0,1,1.576.573,1.914,1.914,0,0,1,.747,1.557q0,.906-.025,2.742t-.024,2.758q0,.763-.081,2.3t-.081,2.305a17.139,17.139,0,0,0,.585,4.578,4.292,4.292,0,0,0,5.246,4.085h.075q4.227,0,5.708-7.31a56.7,56.7,0,0,0,.779-10.72,3.229,3.229,0,0,1,.536-1.754,2.34,2.34,0,0,1,2.079-1.121m0-3.513a5.821,5.821,0,0,0-5.022,2.715l-.024.037a6.7,6.7,0,0,0-1.083,3.636,53.77,53.77,0,0,1-.708,10.017c-.555,2.735-1.444,4.5-2.266,4.5h-.032a12.5,12.5,0,0,1-1.342-.075,5.466,5.466,0,0,1-.556-1.412,13.731,13.731,0,0,1-.464-3.663c0-.31.014-.929.076-2.12.058-1.1.086-1.913.086-2.49s.008-1.479.024-2.712.025-2.172.025-2.789a5.422,5.422,0,0,0-2.026-4.269,5.894,5.894,0,0,0-3.81-1.374,5.358,5.358,0,0,0-5.007,3.646,9.754,9.754,0,0,0-.748,3.776c0,.382-.01.977-.031,1.767-.023.859-.034,1.5-.034,1.95,0,.316-.014.944-.076,2.146-.058,1.1-.086,1.919-.086,2.514,0,6.562,1.889,11.356,5.615,14.247,1.995,1.548,4.713,2.3,8.31,2.3a11.245,11.245,0,0,0,6.09-1.847,14.251,14.251,0,0,0,3.8-3.561,24.641,24.641,0,0,0,4.229-10.709,66.769,66.769,0,0,0,.647-10.575,5.8,5.8,0,0,0-1.045-3.33,5.343,5.343,0,0,0-4.547-2.328Z" transform="translate(-411.861 -654.76)" fill="#608a43"/>
    </g>
    <g id="Group_21" data-name="Group 21" transform="translate(48.974)">
      <path id="Path_1342" data-name="Path 1342" d="M481.692,683.925a27.656,27.656,0,0,1-9.567,1.413,2.354,2.354,0,0,1-1.746-.812,2.493,2.493,0,0,1-.771-1.738V665.571q-.049-1.1-.081-2.209a11.439,11.439,0,0,1,.081-2.112q.227-1.527,2.842-1.851a16.42,16.42,0,0,1,4.093-.357,10.053,10.053,0,0,1,5.88,1.982,6.839,6.839,0,0,1,3.3,5.766,6.647,6.647,0,0,1-.682,3.151,8.171,8.171,0,0,1-1.868,2.225,8.019,8.019,0,0,1,2.794,2.306,5.492,5.492,0,0,1,1.381,3.427,5.4,5.4,0,0,1-2.355,4.093A11.837,11.837,0,0,1,481.692,683.925Zm-5.149-20.482q-2.1,0-2.518.033l.016,3.443-.016,3.411a11.739,11.739,0,0,0,2.225.114q4.97-.39,4.97-3.655a2.91,2.91,0,0,0-1.462-2.225A5.3,5.3,0,0,0,476.543,663.444Zm1.9,11.484q-1.478,0-4.418-.114v6.074a27.618,27.618,0,0,0,6.059-1.072q2.859-.812,2.826-1.754-.049-1.251-1.835-2.225A6.944,6.944,0,0,0,478.444,674.927Z" transform="translate(-466 -655.529)" fill="#fff"/>
      <path id="Path_1343" data-name="Path 1343" d="M473.056,655.555a10.053,10.053,0,0,1,5.88,1.982,6.839,6.839,0,0,1,3.3,5.766,6.649,6.649,0,0,1-.682,3.151,8.173,8.173,0,0,1-1.868,2.225,8.02,8.02,0,0,1,2.794,2.306,5.492,5.492,0,0,1,1.381,3.427,5.4,5.4,0,0,1-2.355,4.093,11.833,11.833,0,0,1-3.3,1.933,27.652,27.652,0,0,1-9.567,1.413,2.353,2.353,0,0,1-1.746-.812,2.492,2.492,0,0,1-.771-1.738V662.085q-.049-1.1-.081-2.209a11.435,11.435,0,0,1,.081-2.112q.227-1.527,2.842-1.851a16.42,16.42,0,0,1,4.093-.357m-.744,11.419c.168,0,.319-.005.452-.017q4.97-.39,4.97-3.655a2.911,2.911,0,0,0-1.462-2.225,5.3,5.3,0,0,0-3.216-1.121q-2.1,0-2.518.033l.016,3.443-.016,3.411a15.362,15.362,0,0,0,1.773.131M470.539,677.4a27.621,27.621,0,0,0,6.059-1.072q2.859-.811,2.826-1.754-.049-1.25-1.835-2.225a6.947,6.947,0,0,0-2.631-.909q-1.478,0-4.418-.114V677.4m2.518-25.359a20.484,20.484,0,0,0-4.785.419c-4.527.665-5.442,3.557-5.625,4.786a14.69,14.69,0,0,0-.117,2.747c.021.714.048,1.443.079,2.167V679.3a5.951,5.951,0,0,0,1.738,4.158,5.825,5.825,0,0,0,4.293,1.9,30.774,30.774,0,0,0,10.8-1.635,15.41,15.41,0,0,0,4.287-2.5c3.018-2.477,3.65-5.073,3.65-6.817a8.911,8.911,0,0,0-2.144-5.614q-.282-.355-.58-.684l.017-.032a10.135,10.135,0,0,0,1.083-4.781,10.264,10.264,0,0,0-4.8-8.645,13.53,13.53,0,0,0-7.893-2.616Z" transform="translate(-462.513 -652.042)" fill="#608a43"/>
    </g>
    <g id="Group_22" data-name="Group 22" transform="translate(67.926 0.902)">
      <path id="Path_1344" data-name="Path 1344" d="M528.162,665.979q-1.267,0-3.948-.179-2.582-.179-3.946-.162.065,1.851.439,6.595.341,4.19.341,6.627,0,.553.113,1.641t.114,1.641a4.587,4.587,0,0,1-.519,2.192,2.073,2.073,0,0,1-1.9,1.251,2.389,2.389,0,0,1-1.576-.568,1.984,1.984,0,0,1-.763-1.592,4.4,4.4,0,0,1,.081-.69,4.441,4.441,0,0,0,.081-.707q0-.747-.106-2.258t-.105-2.274q0-2.177-.341-5.9-.39-4.272-.455-5.9h-.845a25.248,25.248,0,0,1-5.75-.519,2.052,2.052,0,0,1-1.8-2.128,2.207,2.207,0,0,1,.585-1.494,2.026,2.026,0,0,1,1.786-.715q.568.033,2.583.276a24.47,24.47,0,0,0,2.6.179q.991,0,2.965-.032t2.964-.033q1.234,0,3.7.17t3.7.171a2.26,2.26,0,0,1,1.632.634,2.078,2.078,0,0,1,.658,1.559,2.105,2.105,0,0,1-.658,1.567A2.244,2.244,0,0,1,528.162,665.979Z" transform="translate(-503.761 -657.326)" fill="#fff"/>
      <path id="Path_1345" data-name="Path 1345" d="M505.958,657.352c.066,0,.133,0,.2.007q.568.033,2.583.276a24.5,24.5,0,0,0,2.6.179q.991,0,2.965-.032t2.964-.033q1.234,0,3.7.17t3.7.171a2.261,2.261,0,0,1,1.632.634,2.078,2.078,0,0,1,.658,1.559,2.105,2.105,0,0,1-.658,1.568,2.244,2.244,0,0,1-1.632.641q-1.267,0-3.947-.179-2.371-.164-3.716-.164h-.231q.065,1.851.439,6.594.341,4.19.341,6.627,0,.553.113,1.641t.114,1.641a4.587,4.587,0,0,1-.519,2.192,2.073,2.073,0,0,1-1.9,1.251,2.389,2.389,0,0,1-1.575-.568,1.985,1.985,0,0,1-.763-1.592,4.408,4.408,0,0,1,.081-.69,4.449,4.449,0,0,0,.081-.707q0-.747-.106-2.258t-.105-2.274q0-2.177-.341-5.9-.39-4.272-.455-5.9h-.845a25.248,25.248,0,0,1-5.75-.519,2.052,2.052,0,0,1-1.8-2.128,2.207,2.207,0,0,1,.585-1.494,1.993,1.993,0,0,1,1.585-.722m0-3.513a5.517,5.517,0,0,0-4.239,1.932,5.706,5.706,0,0,0-1.445,3.8,5.552,5.552,0,0,0,4.486,5.542,22.9,22.9,0,0,0,4.139.556c.067.807.147,1.726.242,2.765.216,2.361.326,4.237.326,5.577,0,.6.037,1.423.114,2.519.074,1.051.094,1.626.1,1.934,0,.033-.013.091-.029.181a7.482,7.482,0,0,0-.133,1.294,5.5,5.5,0,0,0,2.033,4.3,5.9,5.9,0,0,0,3.819,1.378,5.572,5.572,0,0,0,5-3.112,8.085,8.085,0,0,0,.932-3.845,20.048,20.048,0,0,0-.133-2.005c-.086-.819-.095-1.165-.095-1.276,0-1.738-.115-4-.352-6.912q-.115-1.458-.2-2.64c1.868.124,3.225.185,4.154.185a5.732,5.732,0,0,0,4.085-1.64,5.7,5.7,0,0,0-.016-8.172,5.749,5.749,0,0,0-4.069-1.617c-.739,0-1.9-.054-3.461-.162-1.743-.121-3.034-.179-3.945-.179-.676,0-1.665.011-3.022.033-1.276.021-2.254.032-2.907.032a20.773,20.773,0,0,1-2.195-.156c-1.817-.219-2.436-.272-2.759-.292-.143-.01-.287-.015-.428-.015Z" transform="translate(-500.274 -653.839)" fill="#608a43"/>
    </g>
    <g id="Group_23" data-name="Group 23" transform="translate(92.403 0.558)">
      <path id="Path_1346" data-name="Path 1346" d="M572.838,685.307a2.31,2.31,0,0,1-1.608-.682,27.319,27.319,0,0,0-10.818-6.4q.179,4.726.179,5.246a2.12,2.12,0,0,1-.65,1.567,2.377,2.377,0,0,1-3.249,0,2.118,2.118,0,0,1-.649-1.567q0-1.219.033-3.647t.032-3.646l.033-13.108a3.157,3.157,0,0,1,.633-1.916,2.443,2.443,0,0,1,2.29-.991q3.947.292,4.044.308a11.549,11.549,0,0,1,3.866,1.089q6.935,3.492,6.936,8.657a5.486,5.486,0,0,1-1.454,3.76,11.06,11.06,0,0,1-4.361,2.753,24.2,24.2,0,0,1,6.481,4.906,2.144,2.144,0,0,1,.569,1.445,2.1,2.1,0,0,1-.682,1.568A2.259,2.259,0,0,1,572.838,685.307Zm-10.411-20.433q-.13-.016-1.9-.129v8.625c.271.011.508.016.715.016a13.392,13.392,0,0,0,5.9-.991,5.9,5.9,0,0,0,1.518-1.121q.69-.7.691-1.056,0-1.819-2.306-3.508A9.385,9.385,0,0,0,562.426,664.874Z" transform="translate(-552.53 -656.64)" fill="#fff"/>
      <path id="Path_1347" data-name="Path 1347" d="M555.31,656.666c.087,0,.176,0,.267.011q3.947.292,4.044.308a11.549,11.549,0,0,1,3.866,1.089q6.935,3.492,6.936,8.657a5.487,5.487,0,0,1-1.454,3.76,11.061,11.061,0,0,1-4.361,2.753,24.2,24.2,0,0,1,6.48,4.906,2.143,2.143,0,0,1,.569,1.445,2.1,2.1,0,0,1-.682,1.568,2.259,2.259,0,0,1-1.624.657,2.31,2.31,0,0,1-1.608-.682,27.319,27.319,0,0,0-10.817-6.4q.178,4.726.179,5.246a2.12,2.12,0,0,1-.649,1.567,2.378,2.378,0,0,1-3.249,0,2.118,2.118,0,0,1-.649-1.567q0-1.219.032-3.647t.033-3.646l.033-13.108a3.157,3.157,0,0,1,.633-1.916,2.4,2.4,0,0,1,2.023-1m2.443,13.232a13.393,13.393,0,0,0,5.9-.991,5.892,5.892,0,0,0,1.518-1.121q.69-.7.691-1.056,0-1.819-2.306-3.508a9.386,9.386,0,0,0-4.613-1.836q-.13-.016-1.9-.129v8.625q.406.016.714.016m-2.443-16.745h0a5.911,5.911,0,0,0-4.834,2.407l-.019.026a6.7,6.7,0,0,0-1.317,4l-.033,13.1c0,.789-.01,2-.032,3.608s-.033,2.863-.033,3.693a5.6,5.6,0,0,0,1.695,4.068,5.889,5.889,0,0,0,8.185,0,5.589,5.589,0,0,0,1.692-3.894,25.993,25.993,0,0,1,4.725,3.543,5.808,5.808,0,0,0,4.011,1.632,5.749,5.749,0,0,0,4.064-1.643,5.577,5.577,0,0,0,1.756-4.1,5.645,5.645,0,0,0-1.437-3.759,20.431,20.431,0,0,0-2.628-2.5q.254-.249.487-.512a9.046,9.046,0,0,0,2.343-6.1c0-3.343-1.539-8.1-8.869-11.795a15.072,15.072,0,0,0-5.022-1.438h0c-.249-.029-.946-.083-4.209-.325-.168-.013-.349-.021-.526-.021Zm5.242,13.046v-.716a7.232,7.232,0,0,1,.865.532,7.723,7.723,0,0,1-.865.184Z" transform="translate(-549.043 -653.153)" fill="#608a43"/>
    </g>
    <g id="Group_24" data-name="Group 24" transform="translate(113.68 1.511)">
      <path id="Path_1348" data-name="Path 1348" d="M617.261,686.545q-1.283-.049-2.582-3.021a25.967,25.967,0,0,1-1.478-4.418q-1.2.179-3.93.357-2.567.179-3.931.423-.748,1.787-2.6,5.376a2.214,2.214,0,0,1-1.982,1.169,2.415,2.415,0,0,1-1.608-.609,1.949,1.949,0,0,1-.715-1.551q0-.829,2.372-5.62a1.928,1.928,0,0,1-.195-.942q.064-.779,1.575-1.218,2.306-4,5.133-8.283,4.06-6.156,5-6.156,1.786,0,2.387,2.16.324,1.738,1.023,5.214.991,4.678,2.42,10.7a20.811,20.811,0,0,0,.829,2.144,6.133,6.133,0,0,1,.585,2.1,2.032,2.032,0,0,1-.707,1.576A2.208,2.208,0,0,1,617.261,686.545ZM611.2,669.881q-1.267,2.177-3.492,5.929a16.185,16.185,0,0,1,2.274-.26q1.819-.114,2.29-.179Q611.885,673.259,611.2,669.881Z" transform="translate(-594.923 -658.539)" fill="#fff"/>
      <path id="Path_1349" data-name="Path 1349" d="M608.837,658.565q1.787,0,2.388,2.16.324,1.738,1.023,5.214.991,4.677,2.42,10.7a20.762,20.762,0,0,0,.828,2.144,6.134,6.134,0,0,1,.585,2.095,2.032,2.032,0,0,1-.707,1.576,2.211,2.211,0,0,1-1.513.6h-.087q-1.283-.049-2.582-3.021a25.973,25.973,0,0,1-1.478-4.418q-1.2.179-3.93.357-2.567.179-3.931.423-.748,1.786-2.6,5.376a2.214,2.214,0,0,1-1.982,1.169,2.414,2.414,0,0,1-1.608-.609,1.948,1.948,0,0,1-.715-1.551q0-.829,2.372-5.62a1.928,1.928,0,0,1-.195-.942q.064-.779,1.575-1.218,2.306-4,5.133-8.283,4.06-6.156,5-6.156m-4.613,13.757a16.18,16.18,0,0,1,2.274-.26q1.819-.114,2.29-.179-.389-2.111-1.072-5.49-1.267,2.177-3.492,5.928m4.613-17.27c-2.278,0-3.835,1.518-7.936,7.734-1.669,2.532-3.224,5.022-4.633,7.416a4.543,4.543,0,0,0-2.644,3.73l0,.029a5.066,5.066,0,0,0,0,.766c-2.02,4.177-2.187,5.166-2.187,6.057a5.469,5.469,0,0,0,1.949,4.225,5.926,5.926,0,0,0,3.887,1.448,5.751,5.751,0,0,0,4.979-2.85c.044-.072.086-.146.125-.222.76-1.474,1.382-2.719,1.874-3.758q.786-.078,1.777-.146.605-.04,1.14-.08.379,1.09.813,2.059c.547,1.251,2.19,4.977,5.662,5.108.077,0,.148,0,.219,0a5.707,5.707,0,0,0,3.858-1.5,5.564,5.564,0,0,0,1.875-4.192,8.966,8.966,0,0,0-.857-3.452c-.491-1.161-.634-1.568-.668-1.67-.933-3.937-1.734-7.479-2.381-10.53-.459-2.287-.8-4.019-1.01-5.149-.019-.1-.042-.2-.069-.3-.825-2.962-2.982-4.731-5.772-4.731Z" transform="translate(-591.436 -655.052)" fill="#608a43"/>
    </g>
    <g id="Group_25" data-name="Group 25" transform="translate(137.345 0.779)">
      <path id="Path_1350" data-name="Path 1350" d="M662.707,668.034a2.281,2.281,0,0,1-2.16-1.543,1.683,1.683,0,0,0-.65-.877,4.125,4.125,0,0,0-1.283-.114q-2.047,0-4.727,3.184-3.751,4.451-3.752,8.333a4.287,4.287,0,0,0,1.185,3.037,3.758,3.758,0,0,0,2.842,1.267,7.15,7.15,0,0,0,3.265-.845q.585-.309,2.469-1.592a4.066,4.066,0,0,1,1.917-.844,2.2,2.2,0,0,1,1.657.715,2.114,2.114,0,0,1-.211,3.2q-4.466,3.768-9.1,3.768a8.162,8.162,0,0,1-6.172-2.664,8.548,8.548,0,0,1-2.4-6.042q0-5.441,4.759-11.11,4.045-4.807,8.268-4.808.714,0,1.291.049a7.668,7.668,0,0,1,1.016.146,2.373,2.373,0,0,1,1.721-.7q1.657,0,2.047,1.9a16.239,16.239,0,0,1,.276,3.183,2.5,2.5,0,0,1-.471,1.478A2.049,2.049,0,0,1,662.707,668.034Z" transform="translate(-642.074 -657.082)" fill="#fff"/>
      <path id="Path_1351" data-name="Path 1351" d="M659.155,657.108q1.657,0,2.047,1.9a16.235,16.235,0,0,1,.276,3.183,2.5,2.5,0,0,1-.471,1.478,2.049,2.049,0,0,1-1.786.877A2.281,2.281,0,0,1,657.06,663a1.682,1.682,0,0,0-.65-.877,4.132,4.132,0,0,0-1.283-.114q-2.047,0-4.727,3.183-3.752,4.451-3.752,8.333a4.289,4.289,0,0,0,1.186,3.037,3.759,3.759,0,0,0,2.842,1.267,7.15,7.15,0,0,0,3.265-.845q.585-.309,2.469-1.592a4.065,4.065,0,0,1,1.917-.844,2.2,2.2,0,0,1,1.657.715,2.114,2.114,0,0,1-.211,3.2q-4.467,3.768-9.1,3.768a8.163,8.163,0,0,1-6.172-2.664,8.548,8.548,0,0,1-2.4-6.042q0-5.441,4.759-11.11,4.044-4.807,8.268-4.808.714,0,1.291.049a7.652,7.652,0,0,1,1.015.146,2.373,2.373,0,0,1,1.722-.7m0-3.513a5.925,5.925,0,0,0-2.543.557c-.452-.035-.952-.053-1.485-.053-3.888,0-7.574,2.039-10.956,6.059-3.706,4.414-5.584,8.912-5.584,13.372a11.993,11.993,0,0,0,3.354,8.444,11.748,11.748,0,0,0,8.736,3.775c3.924,0,7.746-1.546,11.362-4.6a5.727,5.727,0,0,0-3.711-10.113,6.938,6.938,0,0,0-3.865,1.434l-.029.02c-1.539,1.048-2.008,1.321-2.115,1.38a3.656,3.656,0,0,1-1.641.447c-.1,0-.133,0-.277-.154a.794.794,0,0,1-.238-.637c0-1.724.984-3.766,2.925-6.068a10.356,10.356,0,0,1,1.615-1.606,5.75,5.75,0,0,0,9.178-.163,6.035,6.035,0,0,0,1.112-3.5,19.783,19.783,0,0,0-.346-3.88,5.48,5.48,0,0,0-5.49-4.717Z" transform="translate(-638.587 -653.595)" fill="#608a43"/>
    </g>
    <g id="Group_26" data-name="Group 26" transform="translate(160.088 0.902)">
      <path id="Path_1352" data-name="Path 1352" d="M711.788,665.979q-1.267,0-3.947-.179-2.582-.179-3.947-.162.065,1.851.439,6.595.341,4.19.341,6.627,0,.553.114,1.641t.113,1.641a4.586,4.586,0,0,1-.519,2.192,2.072,2.072,0,0,1-1.9,1.251,2.391,2.391,0,0,1-1.576-.568,1.984,1.984,0,0,1-.763-1.592,4.4,4.4,0,0,1,.081-.69,4.45,4.45,0,0,0,.081-.707q0-.747-.105-2.258t-.106-2.274q0-2.177-.341-5.9-.39-4.272-.455-5.9h-.845a25.249,25.249,0,0,1-5.75-.519,2.052,2.052,0,0,1-1.8-2.128,2.207,2.207,0,0,1,.585-1.494,2.027,2.027,0,0,1,1.786-.715q.568.033,2.583.276a24.484,24.484,0,0,0,2.6.179q.991,0,2.964-.032t2.964-.033q1.234,0,3.7.17t3.7.171a2.261,2.261,0,0,1,1.632.634,2.078,2.078,0,0,1,.658,1.559,2.105,2.105,0,0,1-.658,1.567A2.244,2.244,0,0,1,711.788,665.979Z" transform="translate(-687.387 -657.326)" fill="#fff"/>
      <path id="Path_1353" data-name="Path 1353" d="M689.584,657.352c.066,0,.132,0,.2.007q.568.033,2.583.276a24.515,24.515,0,0,0,2.6.179q.991,0,2.964-.032t2.964-.033q1.234,0,3.7.17t3.7.171a2.261,2.261,0,0,1,1.632.634,2.078,2.078,0,0,1,.658,1.559,2.106,2.106,0,0,1-.658,1.568,2.244,2.244,0,0,1-1.632.641q-1.267,0-3.947-.179-2.371-.164-3.715-.164h-.231q.065,1.851.439,6.594.341,4.19.341,6.627,0,.553.114,1.641t.113,1.641a4.587,4.587,0,0,1-.519,2.192,2.072,2.072,0,0,1-1.9,1.251,2.39,2.39,0,0,1-1.576-.568,1.985,1.985,0,0,1-.763-1.592,4.4,4.4,0,0,1,.081-.69,4.444,4.444,0,0,0,.081-.707q0-.747-.105-2.258t-.106-2.274q0-2.177-.341-5.9-.39-4.272-.455-5.9h-.845a25.249,25.249,0,0,1-5.75-.519,2.052,2.052,0,0,1-1.8-2.128,2.207,2.207,0,0,1,.585-1.494,1.994,1.994,0,0,1,1.586-.722m0-3.513a5.517,5.517,0,0,0-4.239,1.932,5.708,5.708,0,0,0-1.445,3.8,5.552,5.552,0,0,0,4.486,5.542,22.9,22.9,0,0,0,4.14.556c.066.807.146,1.726.241,2.765.216,2.361.326,4.237.326,5.577,0,.6.038,1.423.114,2.519.073,1.051.094,1.626.1,1.934,0,.033-.013.091-.028.181a7.48,7.48,0,0,0-.134,1.294,5.5,5.5,0,0,0,2.033,4.3,5.9,5.9,0,0,0,3.82,1.378,5.571,5.571,0,0,0,5-3.112,8.085,8.085,0,0,0,.932-3.845,20.026,20.026,0,0,0-.132-2.005c-.085-.819-.095-1.165-.095-1.276,0-1.738-.115-4-.352-6.912q-.115-1.458-.2-2.64c1.868.124,3.225.185,4.154.185a5.731,5.731,0,0,0,4.085-1.64,5.7,5.7,0,0,0-.016-8.172,5.749,5.749,0,0,0-4.069-1.617c-.739,0-1.9-.054-3.461-.162-1.743-.121-3.033-.179-3.945-.179-.676,0-1.665.011-3.022.033-1.276.021-2.254.032-2.906.032a20.764,20.764,0,0,1-2.195-.156c-1.817-.219-2.436-.272-2.759-.292-.143-.01-.288-.015-.429-.015Z" transform="translate(-683.9 -653.839)" fill="#608a43"/>
    </g>
  </g>
</svg>
