<svg xmlns="http://www.w3.org/2000/svg" xmlns:xlink="http://www.w3.org/1999/xlink" width="226" height="77.918" viewBox="0 0 226 77.918">
  <defs>
    <linearGradient id="linear-gradient" x1="0.5" y1="1" x2="0.5" gradientUnits="objectBoundingBox">
      <stop offset="0.006" stop-color="#89be5e"/>
      <stop offset="1" stop-color="#c2e895"/>
    </linearGradient>
    <clipPath id="clip-path">
      <path id="Path_1381" data-name="Path 1381" d="M-484.029,1318.963V1292.6h0a6.59,6.59,0,0,0,6.59-6.59v-6.784a6.4,6.4,0,0,0-6.4-6.4H-685.026a6.4,6.4,0,0,0-6.4,6.4v6.784a6.59,6.59,0,0,0,6.59,6.59h0v26.36h0a6.59,6.59,0,0,0-6.59,6.59v6.784a6.4,6.4,0,0,0,6.4,6.4h201.191a6.4,6.4,0,0,0,6.4-6.4v-6.784a6.59,6.59,0,0,0-6.59-6.59Z" transform="translate(691.422 -1272.833)" fill="none"/>
    </clipPath>
  </defs>
  <g id="Group_65" data-name="Group 65" transform="translate(-577 -678)">
    <g id="Group_64" data-name="Group 64" transform="translate(577 678)">
      <g id="Group_57" data-name="Group 57" transform="translate(0)">
        <path id="Path_1378" data-name="Path 1378" d="M-484.029,1318.963V1292.6h0a6.59,6.59,0,0,0,6.59-6.59v-6.784a6.4,6.4,0,0,0-6.4-6.4H-685.026a6.4,6.4,0,0,0-6.4,6.4v6.784a6.59,6.59,0,0,0,6.59,6.59h0v26.36h0a6.59,6.59,0,0,0-6.59,6.59v6.784a6.4,6.4,0,0,0,6.4,6.4h201.191a6.4,6.4,0,0,0,6.4-6.4v-6.784a6.59,6.59,0,0,0-6.59-6.59Z" transform="translate(697.431 -1266.824)" fill="url(#linear-gradient)"/>
        <path id="Path_1379" data-name="Path 1379" d="M-489.827,1266.842a6.4,6.4,0,0,1,6.4,6.4v6.784a6.59,6.59,0,0,1-6.59,6.59v26.36a6.59,6.59,0,0,1,6.59,6.59v6.784a6.4,6.4,0,0,1-6.4,6.4H-691.017a6.4,6.4,0,0,1-6.4-6.4v-6.784a6.59,6.59,0,0,1,6.59-6.59h0v-26.36h0a6.59,6.59,0,0,1-6.59-6.59v-6.784a6.4,6.4,0,0,1,6.4-6.4h201.191m0-6.009H-691.017a12.419,12.419,0,0,0-12.4,12.4v6.784a12.61,12.61,0,0,0,6.59,11.071v17.4a12.611,12.611,0,0,0-6.59,11.071v6.784a12.419,12.419,0,0,0,12.4,12.4h201.191a12.419,12.419,0,0,0,12.4-12.4v-6.784a12.61,12.61,0,0,0-6.59-11.071v-17.4a12.609,12.609,0,0,0,6.59-11.071v-6.784a12.419,12.419,0,0,0-12.4-12.4Z" transform="translate(703.422 -1260.833)" fill="#608a43"/>
        <g id="Group_56" data-name="Group 56" transform="translate(6.009 6.009)" opacity="0.5">
          <g id="Group_55" data-name="Group 55" clip-path="url(#clip-path)">
            <path id="Path_1380" data-name="Path 1380" d="M-717.935,1325.179v-5.019h87.988v13.506h33.337v-27.013h59.049v17.459h57.5v5.019H-542.58v-17.459h-49.012v27.013h-43.374v-13.506Z" transform="translate(704.659 -1289.719)" fill="#fff"/>
          </g>
        </g>
      </g>
      <g id="Group_63" data-name="Group 63" transform="translate(52.433 22.51)">
        <g id="Group_58" data-name="Group 58" transform="translate(0 1.129)">
          <path id="Path_1382" data-name="Path 1382" d="M-583.231,1339.8a10.341,10.341,0,0,1-6.482-1.831,4.383,4.383,0,0,1-1.993-3.516,2.41,2.41,0,0,1,.616-1.693,2.191,2.191,0,0,1,1.7-.672,2.243,2.243,0,0,1,2.139,1.491q.924,1.993,4.181,1.993a12.642,12.642,0,0,0,5.4-1.215q2.706-1.248,2.706-2.739a2.592,2.592,0,0,0-1.685-2.69,16.816,16.816,0,0,0-4.813-.551,12.976,12.976,0,0,1-5.023-1.053q-3-1.345-2.949-3.857.048-3.159,3.37-5.793a11.519,11.519,0,0,1,7.324-2.633,13.628,13.628,0,0,1,3.922.729q2.9.908,2.9,2.091a2.162,2.162,0,0,1-.583,1.491,2.131,2.131,0,0,1-1.669.729,11.964,11.964,0,0,1-2.276-.324,12.031,12.031,0,0,0-2.293-.324,8.56,8.56,0,0,0-3.97,1q-1.944,1.005-1.945,2.187a1.181,1.181,0,0,0,.592,1.013,4.278,4.278,0,0,0,1.774.559l4.132.227a9.8,9.8,0,0,1,5.688,2.025,6.665,6.665,0,0,1,2.3,5.38q0,4.18-4.764,6.336A20,20,0,0,1-583.231,1339.8Z" transform="translate(595.211 -1311.537)" fill="#fff"/>
          <path id="Path_1383" data-name="Path 1383" d="M-582.238,1311.547a13.627,13.627,0,0,1,3.922.729q2.9.908,2.9,2.091a2.163,2.163,0,0,1-.583,1.491,2.132,2.132,0,0,1-1.669.729,11.969,11.969,0,0,1-2.277-.324,12.015,12.015,0,0,0-2.293-.324,8.559,8.559,0,0,0-3.97,1.005q-1.944,1-1.945,2.187a1.181,1.181,0,0,0,.592,1.013,4.273,4.273,0,0,0,1.774.559l4.132.227a9.8,9.8,0,0,1,5.688,2.025,6.666,6.666,0,0,1,2.3,5.38q0,4.18-4.764,6.335a19.988,19.988,0,0,1-8.3,1.637,10.342,10.342,0,0,1-6.482-1.831,4.383,4.383,0,0,1-1.993-3.516,2.408,2.408,0,0,1,.616-1.693,2.19,2.19,0,0,1,1.7-.672,2.243,2.243,0,0,1,2.138,1.49q.924,1.993,4.181,1.993a12.636,12.636,0,0,0,5.4-1.216q2.706-1.247,2.706-2.738a2.591,2.591,0,0,0-1.685-2.69,16.818,16.818,0,0,0-4.813-.551,12.983,12.983,0,0,1-5.023-1.053q-3-1.345-2.949-3.857.049-3.159,3.371-5.793a11.518,11.518,0,0,1,7.324-2.633m0-3.505a14.993,14.993,0,0,0-9.5,3.392c-3.067,2.431-4.648,5.286-4.7,8.485a6.989,6.989,0,0,0,2.237,5.3,5.487,5.487,0,0,0-2.971,1.68,5.9,5.9,0,0,0-1.535,4.06,7.762,7.762,0,0,0,3.37,6.3,13.752,13.752,0,0,0,8.61,2.551,23.549,23.549,0,0,0,9.737-1.946c5.645-2.553,6.829-6.592,6.829-9.531a10.179,10.179,0,0,0-3.544-8.057,10.806,10.806,0,0,0-1.2-.874,5.652,5.652,0,0,0,1.528-1.218,5.636,5.636,0,0,0,1.469-3.819c0-2.494-1.8-4.323-5.358-5.435a16.847,16.847,0,0,0-4.969-.889Zm-5.4,20.408c-.055-.113-.112-.224-.172-.332a18.372,18.372,0,0,0,2.772.269l.269.007a8.954,8.954,0,0,1-1.793.179,3.6,3.6,0,0,1-1.077-.123Z" transform="translate(598.706 -1308.042)" fill="#608a43"/>
        </g>
        <g id="Group_59" data-name="Group 59" transform="translate(22.394 0.344)">
          <path id="Path_1384" data-name="Path 1384" d="M-526.144,1318.6q-1.264,0-3.938-.178-2.576-.178-3.938-.162.064,1.847.438,6.579.34,4.18.34,6.611,0,.551.114,1.637t.113,1.636a4.577,4.577,0,0,1-.518,2.188,2.068,2.068,0,0,1-1.9,1.248,2.383,2.383,0,0,1-1.572-.567,1.978,1.978,0,0,1-.762-1.588,4.343,4.343,0,0,1,.082-.688,4.473,4.473,0,0,0,.081-.705q0-.745-.105-2.253t-.106-2.268q0-2.171-.34-5.882-.389-4.261-.454-5.882h-.843a25.194,25.194,0,0,1-5.736-.518,2.047,2.047,0,0,1-1.8-2.123,2.2,2.2,0,0,1,.583-1.491,2.021,2.021,0,0,1,1.782-.713q.567.033,2.577.275a24.483,24.483,0,0,0,2.593.178q.988,0,2.957-.032t2.957-.033q1.231,0,3.695.17t3.694.17a2.258,2.258,0,0,1,1.629.632,2.076,2.076,0,0,1,.656,1.556,2.1,2.1,0,0,1-.656,1.564A2.243,2.243,0,0,1-526.144,1318.6Z" transform="translate(550.487 -1309.969)" fill="#fff"/>
          <path id="Path_1385" data-name="Path 1385" d="M-548.312,1309.979c.066,0,.133,0,.2.008q.567.033,2.577.275a24.477,24.477,0,0,0,2.593.178q.988,0,2.957-.033t2.957-.032q1.231,0,3.695.17t3.694.17a2.259,2.259,0,0,1,1.629.632,2.076,2.076,0,0,1,.656,1.556,2.1,2.1,0,0,1-.656,1.564,2.243,2.243,0,0,1-1.629.64q-1.264,0-3.938-.178-2.366-.164-3.707-.163h-.231q.064,1.848.438,6.579.34,4.18.34,6.611,0,.551.114,1.637t.113,1.636a4.578,4.578,0,0,1-.518,2.188,2.068,2.068,0,0,1-1.9,1.248,2.383,2.383,0,0,1-1.572-.567,1.978,1.978,0,0,1-.762-1.588,4.357,4.357,0,0,1,.082-.688,4.461,4.461,0,0,0,.081-.7q0-.745-.105-2.253t-.106-2.269q0-2.171-.34-5.882-.389-4.261-.454-5.882h-.843a25.193,25.193,0,0,1-5.736-.518,2.047,2.047,0,0,1-1.8-2.123,2.2,2.2,0,0,1,.583-1.491,1.99,1.99,0,0,1,1.582-.721m0-3.505a5.5,5.5,0,0,0-4.229,1.928,5.693,5.693,0,0,0-1.442,3.788,5.539,5.539,0,0,0,4.475,5.528,22.833,22.833,0,0,0,4.13.555c.066.8.146,1.722.241,2.758.216,2.356.325,4.227.325,5.563,0,.6.038,1.42.114,2.514.073,1.048.094,1.622.1,1.929,0,.033-.013.091-.028.18a7.472,7.472,0,0,0-.134,1.291,5.49,5.49,0,0,0,2.028,4.286,5.885,5.885,0,0,0,3.81,1.375,5.557,5.557,0,0,0,4.989-3.1,8.062,8.062,0,0,0,.93-3.835,19.959,19.959,0,0,0-.132-2c-.085-.817-.095-1.162-.095-1.273,0-1.733-.115-3.989-.352-6.9q-.115-1.455-.2-2.634c1.864.124,3.217.184,4.144.184a5.719,5.719,0,0,0,4.076-1.636,5.57,5.57,0,0,0,1.714-4.073,5.616,5.616,0,0,0-1.73-4.08,5.738,5.738,0,0,0-4.06-1.612c-.737,0-1.9-.054-3.453-.162-1.738-.12-3.026-.179-3.936-.179-.674,0-1.661.011-3.015.033-1.273.021-2.248.032-2.9.032a20.751,20.751,0,0,1-2.19-.155c-1.813-.219-2.43-.272-2.752-.291-.143-.01-.287-.015-.428-.015Z" transform="translate(553.982 -1306.474)" fill="#608a43"/>
        </g>
        <g id="Group_60" data-name="Group 60" transform="translate(46.797 0.95)">
          <path id="Path_1386" data-name="Path 1386" d="M-479.465,1339.122q-1.281-.049-2.577-3.014a25.959,25.959,0,0,1-1.475-4.408q-1.2.179-3.921.357-2.561.179-3.922.422-.746,1.782-2.593,5.363a2.209,2.209,0,0,1-1.977,1.167,2.409,2.409,0,0,1-1.6-.607,1.944,1.944,0,0,1-.713-1.548q0-.826,2.366-5.607a1.93,1.93,0,0,1-.194-.94q.065-.777,1.572-1.215,2.3-3.986,5.12-8.264,4.05-6.142,4.991-6.142,1.782,0,2.382,2.155.324,1.734,1.021,5.2.988,4.666,2.414,10.678a20.719,20.719,0,0,0,.827,2.139,6.1,6.1,0,0,1,.583,2.09,2.023,2.023,0,0,1-.705,1.572A2.2,2.2,0,0,1-479.465,1339.122Zm-6.044-16.625q-1.264,2.171-3.484,5.914a16.139,16.139,0,0,1,2.268-.259q1.815-.113,2.285-.178Q-484.829,1325.867-485.509,1322.5Z" transform="translate(501.751 -1311.181)" fill="#fff"/>
          <path id="Path_1387" data-name="Path 1387" d="M-487.886,1311.191q1.782,0,2.382,2.156.324,1.733,1.021,5.2.988,4.666,2.414,10.678a20.755,20.755,0,0,0,.827,2.139,6.1,6.1,0,0,1,.583,2.09,2.024,2.024,0,0,1-.705,1.572,2.2,2.2,0,0,1-1.51.6l-.086,0q-1.281-.049-2.577-3.014a25.95,25.95,0,0,1-1.475-4.408q-1.2.179-3.921.356-2.561.179-3.922.422-.746,1.783-2.593,5.363a2.21,2.21,0,0,1-1.977,1.167,2.407,2.407,0,0,1-1.6-.608,1.944,1.944,0,0,1-.713-1.548q0-.826,2.366-5.606a1.931,1.931,0,0,1-.194-.94q.065-.778,1.572-1.215,2.3-3.986,5.12-8.264,4.051-6.141,4.991-6.141m-4.6,13.724a16.232,16.232,0,0,1,2.268-.259q1.815-.113,2.285-.178-.388-2.106-1.069-5.477-1.264,2.172-3.484,5.914m4.6-17.23c-2.272,0-3.826,1.515-7.917,7.717-1.665,2.526-3.217,5.009-4.622,7.4a4.532,4.532,0,0,0-2.637,3.721l0,.029a5.05,5.05,0,0,0,0,.764c-2.015,4.167-2.182,5.154-2.182,6.043a5.457,5.457,0,0,0,1.944,4.215,5.913,5.913,0,0,0,3.878,1.445,5.738,5.738,0,0,0,4.968-2.843c.044-.072.086-.146.124-.222.759-1.47,1.378-2.713,1.87-3.749q.784-.077,1.773-.146.6-.039,1.137-.079.378,1.087.811,2.054c.546,1.248,2.185,4.965,5.649,5.1.077,0,.148,0,.219,0a5.7,5.7,0,0,0,3.849-1.5,5.552,5.552,0,0,0,1.87-4.182,8.943,8.943,0,0,0-.855-3.443c-.49-1.159-.633-1.565-.666-1.666-.931-3.928-1.73-7.462-2.375-10.506-.458-2.281-.8-4.01-1.008-5.137-.019-.1-.042-.2-.069-.3-.823-2.956-2.975-4.72-5.758-4.72Z" transform="translate(505.246 -1307.686)" fill="#608a43"/>
        </g>
        <g id="Group_61" data-name="Group 61" transform="translate(71.087)">
          <path id="Path_1388" data-name="Path 1388" d="M-432.981,1337.882a2.3,2.3,0,0,1-1.6-.681,27.255,27.255,0,0,0-10.792-6.384q.178,4.715.178,5.234a2.115,2.115,0,0,1-.648,1.564,2.214,2.214,0,0,1-1.621.641,2.213,2.213,0,0,1-1.62-.641,2.113,2.113,0,0,1-.648-1.564q0-1.215.033-3.638t.033-3.638l.033-13.076a3.15,3.15,0,0,1,.632-1.912,2.439,2.439,0,0,1,2.285-.989q3.938.292,4.035.308a11.528,11.528,0,0,1,3.857,1.086q6.919,3.483,6.919,8.636a5.474,5.474,0,0,1-1.451,3.751,11.039,11.039,0,0,1-4.351,2.746,24.13,24.13,0,0,1,6.465,4.894,2.137,2.137,0,0,1,.567,1.442,2.1,2.1,0,0,1-.68,1.564A2.254,2.254,0,0,1-432.981,1337.882Zm-10.387-20.385q-.13-.016-1.9-.13v8.6q.4.016.712.016a13.365,13.365,0,0,0,5.882-.988,5.892,5.892,0,0,0,1.515-1.118q.689-.7.689-1.054,0-1.815-2.3-3.5A9.364,9.364,0,0,0-443.367,1317.5Z" transform="translate(453.241 -1309.283)" fill="#fff"/>
          <path id="Path_1389" data-name="Path 1389" d="M-450.483,1309.293c.087,0,.176,0,.266.01q3.938.292,4.035.308a11.526,11.526,0,0,1,3.857,1.086q6.919,3.483,6.919,8.636a5.474,5.474,0,0,1-1.451,3.751,11.04,11.04,0,0,1-4.351,2.746,24.131,24.131,0,0,1,6.465,4.894,2.137,2.137,0,0,1,.567,1.442,2.1,2.1,0,0,1-.68,1.564,2.253,2.253,0,0,1-1.62.656,2.3,2.3,0,0,1-1.6-.68,27.254,27.254,0,0,0-10.792-6.384q.178,4.715.178,5.234a2.115,2.115,0,0,1-.648,1.564,2.216,2.216,0,0,1-1.621.641,2.214,2.214,0,0,1-1.62-.641,2.113,2.113,0,0,1-.648-1.564q0-1.215.033-3.638t.033-3.638l.033-13.077a3.15,3.15,0,0,1,.632-1.912,2.393,2.393,0,0,1,2.018-1m2.437,13.2a13.365,13.365,0,0,0,5.882-.988,5.891,5.891,0,0,0,1.515-1.118q.689-.7.689-1.054,0-1.815-2.3-3.5a9.363,9.363,0,0,0-4.6-1.831q-.13-.016-1.9-.13v8.6q.4.017.713.016m-2.437-16.706h0a5.894,5.894,0,0,0-4.822,2.4l-.019.026a6.687,6.687,0,0,0-1.314,3.989l-.033,13.068c0,.787-.011,2-.032,3.6s-.033,2.856-.033,3.684a5.583,5.583,0,0,0,1.691,4.058,5.687,5.687,0,0,0,4.082,1.651,5.69,5.69,0,0,0,4.083-1.651,5.574,5.574,0,0,0,1.688-3.885,25.956,25.956,0,0,1,4.714,3.535,5.794,5.794,0,0,0,4,1.628,5.735,5.735,0,0,0,4.054-1.639,5.563,5.563,0,0,0,1.752-4.086,5.63,5.63,0,0,0-1.435-3.75,20.352,20.352,0,0,0-2.621-2.49q.253-.249.486-.511a9.026,9.026,0,0,0,2.338-6.082c0-3.336-1.535-8.085-8.848-11.767a15.029,15.029,0,0,0-5.01-1.435h0c-.249-.029-.944-.083-4.2-.324-.168-.013-.349-.021-.525-.021Zm5.23,13.016v-.715a7.3,7.3,0,0,1,.863.53,7.573,7.573,0,0,1-.863.184Z" transform="translate(456.736 -1305.788)" fill="#608a43"/>
        </g>
        <g id="Group_62" data-name="Group 62" transform="translate(91.001 0.344)">
          <path id="Path_1390" data-name="Path 1390" d="M-389.124,1318.6q-1.265,0-3.938-.178-2.576-.178-3.937-.162.065,1.847.438,6.579.34,4.18.34,6.611,0,.551.113,1.637t.114,1.636a4.578,4.578,0,0,1-.518,2.188,2.068,2.068,0,0,1-1.9,1.248,2.381,2.381,0,0,1-1.572-.567,1.978,1.978,0,0,1-.762-1.588,4.391,4.391,0,0,1,.081-.688,4.435,4.435,0,0,0,.081-.705q0-.745-.106-2.253t-.105-2.268q0-2.171-.34-5.882-.389-4.261-.454-5.882h-.843a25.194,25.194,0,0,1-5.736-.518,2.047,2.047,0,0,1-1.8-2.123,2.2,2.2,0,0,1,.583-1.491,2.022,2.022,0,0,1,1.783-.713q.567.033,2.577.275a24.467,24.467,0,0,0,2.592.178q.988,0,2.958-.032t2.957-.033q1.231,0,3.694.17t3.695.17a2.256,2.256,0,0,1,1.628.632,2.075,2.075,0,0,1,.656,1.556,2.1,2.1,0,0,1-.656,1.564A2.241,2.241,0,0,1-389.124,1318.6Z" transform="translate(413.468 -1309.969)" fill="#fff"/>
          <path id="Path_1391" data-name="Path 1391" d="M-411.292,1309.979c.066,0,.132,0,.2.008q.567.033,2.577.275a24.461,24.461,0,0,0,2.592.178q.988,0,2.958-.033t2.957-.032q1.231,0,3.694.17t3.695.17a2.257,2.257,0,0,1,1.628.632,2.075,2.075,0,0,1,.656,1.556,2.1,2.1,0,0,1-.656,1.564,2.241,2.241,0,0,1-1.628.64q-1.265,0-3.938-.178-2.366-.164-3.707-.163h-.23q.065,1.848.438,6.579.34,4.18.34,6.611,0,.551.113,1.637t.114,1.636a4.578,4.578,0,0,1-.518,2.188,2.069,2.069,0,0,1-1.9,1.248,2.381,2.381,0,0,1-1.572-.567,1.978,1.978,0,0,1-.762-1.588,4.408,4.408,0,0,1,.081-.688,4.423,4.423,0,0,0,.081-.7q0-.745-.106-2.253t-.105-2.269q0-2.171-.34-5.882-.389-4.261-.454-5.882h-.843a25.193,25.193,0,0,1-5.736-.518,2.048,2.048,0,0,1-1.8-2.123,2.2,2.2,0,0,1,.583-1.491,1.99,1.99,0,0,1,1.582-.721m0-3.505a5.5,5.5,0,0,0-4.229,1.928,5.694,5.694,0,0,0-1.442,3.788,5.539,5.539,0,0,0,4.475,5.528,22.833,22.833,0,0,0,4.129.555c.066.8.147,1.722.241,2.758.216,2.356.325,4.227.325,5.563,0,.6.037,1.42.114,2.514.074,1.048.094,1.622.1,1.929,0,.033-.013.091-.029.18a7.466,7.466,0,0,0-.133,1.291,5.489,5.489,0,0,0,2.028,4.286,5.887,5.887,0,0,0,3.81,1.375,5.559,5.559,0,0,0,4.99-3.1,8.062,8.062,0,0,0,.93-3.835,19.974,19.974,0,0,0-.132-2c-.086-.817-.095-1.162-.095-1.273,0-1.733-.115-3.989-.351-6.9q-.115-1.455-.2-2.634c1.864.124,3.217.184,4.144.184a5.72,5.72,0,0,0,4.076-1.636,5.57,5.57,0,0,0,1.714-4.073,5.615,5.615,0,0,0-1.73-4.08,5.739,5.739,0,0,0-4.06-1.612c-.738,0-1.9-.054-3.453-.162-1.739-.12-3.026-.179-3.936-.179-.675,0-1.661.011-3.015.033-1.273.021-2.249.032-2.9.032a20.76,20.76,0,0,1-2.19-.155c-1.813-.219-2.43-.272-2.752-.291-.143-.01-.287-.015-.428-.015Z" transform="translate(416.963 -1306.474)" fill="#608a43"/>
        </g>
      </g>
    </g>
  </g>
</svg>
