<svg xmlns="http://www.w3.org/2000/svg" xmlns:xlink="http://www.w3.org/1999/xlink" width="227.162" height="78.318" viewBox="0 0 227.162 78.318">
  <defs>
    <linearGradient id="linear-gradient" x1="0.5" y1="1" x2="0.5" gradientUnits="objectBoundingBox">
      <stop offset="0.006" stop-color="#89be5e"/>
      <stop offset="1" stop-color="#c2e895"/>
    </linearGradient>
    <clipPath id="clip-path">
      <path id="Path_1402" data-name="Path 1402" d="M-482.963,1732.549v-26.5h0a6.623,6.623,0,0,0,6.624-6.624v-6.819a6.429,6.429,0,0,0-6.429-6.429H-684.993a6.429,6.429,0,0,0-6.429,6.429v6.819a6.624,6.624,0,0,0,6.624,6.624h0v26.5h0a6.624,6.624,0,0,0-6.624,6.624v6.819a6.429,6.429,0,0,0,6.429,6.429h202.225a6.429,6.429,0,0,0,6.429-6.429v-6.819a6.623,6.623,0,0,0-6.624-6.624Z" transform="translate(691.422 -1686.182)" fill="none"/>
    </clipPath>
  </defs>
  <g id="Group_81" data-name="Group 81" transform="translate(-443.46 -814.159)">
    <g id="Group_80" data-name="Group 80" transform="translate(1146.882 -860.023)">
      <g id="Group_71" data-name="Group 71" transform="translate(-703.422 1674.182)">
        <g id="Group_70" data-name="Group 70">
          <path id="Path_1399" data-name="Path 1399" d="M-482.963,1732.549v-26.5h0a6.623,6.623,0,0,0,6.624-6.624v-6.819a6.429,6.429,0,0,0-6.429-6.429H-684.993a6.429,6.429,0,0,0-6.429,6.429v6.819a6.624,6.624,0,0,0,6.624,6.624h0v26.5h0a6.624,6.624,0,0,0-6.624,6.624v6.819a6.429,6.429,0,0,0,6.429,6.429h202.225a6.429,6.429,0,0,0,6.429-6.429v-6.819a6.623,6.623,0,0,0-6.624-6.624Z" transform="translate(697.461 -1680.142)" fill="url(#linear-gradient)"/>
          <path id="Path_1400" data-name="Path 1400" d="M-488.728,1680.221a6.429,6.429,0,0,1,6.429,6.429v6.819a6.624,6.624,0,0,1-6.624,6.624v26.5a6.624,6.624,0,0,1,6.624,6.624v6.819a6.429,6.429,0,0,1-6.429,6.429H-690.953a6.429,6.429,0,0,1-6.429-6.429v-6.819a6.624,6.624,0,0,1,6.624-6.624h0v-26.5h0a6.624,6.624,0,0,1-6.624-6.624v-6.819a6.429,6.429,0,0,1,6.429-6.429h202.225m0-6.039H-690.953a12.483,12.483,0,0,0-12.468,12.469v6.819A12.674,12.674,0,0,0-696.8,1704.6v17.487a12.675,12.675,0,0,0-6.624,11.128v6.819a12.483,12.483,0,0,0,12.468,12.469h202.225a12.483,12.483,0,0,0,12.468-12.469v-6.819a12.674,12.674,0,0,0-6.624-11.128V1704.6a12.673,12.673,0,0,0,6.624-11.128v-6.819a12.483,12.483,0,0,0-12.468-12.469Z" transform="translate(703.422 -1674.182)" fill="#608a43"/>
          <g id="Group_69" data-name="Group 69" transform="translate(6.039 6.039)" opacity="0.5">
            <g id="Group_68" data-name="Group 68" clip-path="url(#clip-path)">
              <path id="Path_1401" data-name="Path 1401" d="M-717.935,1738.623v-5.044h88.44v13.576h33.508V1720h59.353v17.549h57.794v5.044h-62.838v-17.549h-49.264V1752.2h-43.6v-13.576Z" transform="translate(704.591 -1702.981)" fill="#fff"/>
            </g>
          </g>
        </g>
      </g>
      <g id="Group_79" data-name="Group 79" transform="translate(-670.95 1696.445)">
        <g id="Group_72" data-name="Group 72" transform="translate(0 1.113)">
          <path id="Path_1403" data-name="Path 1403" d="M-616.062,1751.851a2.318,2.318,0,0,1-1.613-.683,27.4,27.4,0,0,0-10.847-6.418q.179,4.74.179,5.261a2.126,2.126,0,0,1-.652,1.572,2.226,2.226,0,0,1-1.629.643,2.226,2.226,0,0,1-1.629-.643,2.125,2.125,0,0,1-.652-1.572q0-1.222.033-3.657t.033-3.656l.033-13.144a3.167,3.167,0,0,1,.635-1.922,2.451,2.451,0,0,1,2.3-.994q3.957.294,4.055.31a11.582,11.582,0,0,1,3.876,1.091q6.955,3.5,6.955,8.681a5.5,5.5,0,0,1-1.458,3.77,11.091,11.091,0,0,1-4.373,2.761,24.243,24.243,0,0,1,6.5,4.919,2.148,2.148,0,0,1,.57,1.449,2.109,2.109,0,0,1-.684,1.572A2.266,2.266,0,0,1-616.062,1751.851Zm-10.44-20.489q-.131-.015-1.905-.13v8.649q.407.016.717.016a13.432,13.432,0,0,0,5.913-.994,5.907,5.907,0,0,0,1.522-1.124q.692-.7.692-1.058,0-1.824-2.312-3.519A9.411,9.411,0,0,0-626.5,1731.362Z" transform="translate(635.923 -1723.608)" fill="#fff"/>
          <path id="Path_1404" data-name="Path 1404" d="M-633.121,1723.648q.131,0,.267.011,3.957.294,4.055.31a11.6,11.6,0,0,1,3.876,1.091q6.954,3.5,6.954,8.682a5.5,5.5,0,0,1-1.457,3.77,11.089,11.089,0,0,1-4.373,2.761,24.247,24.247,0,0,1,6.5,4.919,2.149,2.149,0,0,1,.57,1.449,2.108,2.108,0,0,1-.684,1.572,2.267,2.267,0,0,1-1.629.66,2.318,2.318,0,0,1-1.612-.683,27.4,27.4,0,0,0-10.847-6.417q.179,4.739.179,5.261a2.126,2.126,0,0,1-.652,1.572,2.226,2.226,0,0,1-1.629.643,2.227,2.227,0,0,1-1.629-.643,2.126,2.126,0,0,1-.652-1.572q0-1.222.033-3.657t.033-3.656l.033-13.144a3.166,3.166,0,0,1,.635-1.922,2.407,2.407,0,0,1,2.029-1m2.449,13.269a13.422,13.422,0,0,0,5.913-.994,5.882,5.882,0,0,0,1.523-1.123q.692-.7.692-1.058,0-1.824-2.312-3.519a9.411,9.411,0,0,0-4.626-1.841q-.131-.015-1.905-.13v8.649q.407.016.717.016m-2.449-16.289h0a5.435,5.435,0,0,0-4.445,2.212l-.017.024a6.221,6.221,0,0,0-1.222,3.71l-.033,13.137c0,.791-.01,1.973-.033,3.623-.022,1.629-.033,2.873-.033,3.7a5.12,5.12,0,0,0,1.55,3.72,5.225,5.225,0,0,0,3.75,1.515,5.227,5.227,0,0,0,3.75-1.514,5.122,5.122,0,0,0,1.551-3.721c0-.1,0-.281-.015-.689a26.2,26.2,0,0,1,5.6,4.048,5.33,5.33,0,0,0,3.677,1.5,5.272,5.272,0,0,0,3.725-1.506,5.1,5.1,0,0,0,1.608-3.745,5.166,5.166,0,0,0-1.316-3.437,20.588,20.588,0,0,0-3.03-2.8,10.422,10.422,0,0,0,.886-.882,8.575,8.575,0,0,0,2.222-5.778c0-4.672-2.9-8.5-8.616-11.379a14.619,14.619,0,0,0-4.87-1.392h0c-.242-.027-.933-.082-4.2-.323-.158-.013-.327-.019-.491-.019Zm4.753,13.155v-2.068a7.218,7.218,0,0,1,1.738.951,5.9,5.9,0,0,1,.611.506c-.036.021-.073.041-.11.06a6.556,6.556,0,0,1-2.238.551Z" transform="translate(638.903 -1720.628)" fill="#608a43"/>
        </g>
        <g id="Group_73" data-name="Group 73" transform="translate(21.386)">
          <path id="Path_1405" data-name="Path 1405" d="M-573.88,1729.677a2.59,2.59,0,0,1-.684-.1,19.54,19.54,0,0,0-5.13-.717,19.049,19.049,0,0,0-2.622.2,29.19,29.19,0,0,0-2.981.587q0,2.166-.147,6.434.912-.065,6.368-.6,3.111-.31,3.942-.31a2.385,2.385,0,0,1,1.645.611,2.068,2.068,0,0,1,.683,1.621,2.047,2.047,0,0,1-2.068,2.2q-1.3.1-3.893.326-2.313.26-6.971.635-.114,2.068-.114,3.339,0,3.193.374,3.632a4.7,4.7,0,0,0,2.052.212q1.01,0,3.046-.049t3.046-.049a6.841,6.841,0,0,0,.961-.1,6.911,6.911,0,0,1,.945-.1,2.492,2.492,0,0,1,1.613.537,2.032,2.032,0,0,1,.766,1.694,2.048,2.048,0,0,1-1.905,2.183,45.73,45.73,0,0,1-6.759.309q-5.31,0-6.922-1.433-1.776-1.579-1.775-6.841,0-2.183.318-6.555t.317-6.54a12.814,12.814,0,0,0-.163-1.686,12.711,12.711,0,0,1-.163-1.686q0-2.475,2.28-2.476a2.31,2.31,0,0,1,1.319.408,34.17,34.17,0,0,1,3.591-.709,23.449,23.449,0,0,1,3.217-.236,18.713,18.713,0,0,1,6.564.945,2.074,2.074,0,0,1,1.5,2.068,2.175,2.175,0,0,1-.586,1.5A2.1,2.1,0,0,1-573.88,1729.677Z" transform="translate(593.431 -1721.397)" fill="#fff"/>
          <path id="Path_1406" data-name="Path 1406" d="M-582.674,1721.437a18.72,18.72,0,0,1,6.564.945,2.074,2.074,0,0,1,1.5,2.068,2.173,2.173,0,0,1-.586,1.5,2.1,2.1,0,0,1-1.661.749,2.589,2.589,0,0,1-.684-.1,19.545,19.545,0,0,0-5.13-.717,18.976,18.976,0,0,0-2.622.2,29.081,29.081,0,0,0-2.981.586q0,2.166-.147,6.433.912-.065,6.368-.6,3.111-.31,3.942-.31a2.388,2.388,0,0,1,1.645.611,2.068,2.068,0,0,1,.683,1.621,2.047,2.047,0,0,1-2.068,2.2q-1.3.1-3.893.325-2.313.261-6.971.636-.114,2.068-.114,3.339,0,3.192.374,3.632a4.7,4.7,0,0,0,2.052.212q1.01,0,3.046-.049t3.046-.048a6.85,6.85,0,0,0,.961-.1,6.9,6.9,0,0,1,.945-.1,2.49,2.49,0,0,1,1.612.537,2.031,2.031,0,0,1,.766,1.693,2.048,2.048,0,0,1-1.905,2.183,45.687,45.687,0,0,1-6.759.309q-5.31,0-6.922-1.433-1.776-1.579-1.775-6.841,0-2.183.318-6.556t.317-6.539a12.779,12.779,0,0,0-.162-1.686,12.717,12.717,0,0,1-.163-1.686q0-2.475,2.281-2.475a2.309,2.309,0,0,1,1.319.407,34.3,34.3,0,0,1,3.592-.709,23.467,23.467,0,0,1,3.217-.236m0-3.02a26.606,26.606,0,0,0-3.632.265c-.921.128-1.883.3-2.872.524a5.34,5.34,0,0,0-1.624-.252c-3.22,0-5.3,2.157-5.3,5.5a15.154,15.154,0,0,0,.195,2.122,9.809,9.809,0,0,1,.131,1.249c0,1.367-.1,3.493-.31,6.321-.219,3.014-.325,5.23-.325,6.774,0,4.515.886,7.405,2.788,9.1,1.687,1.5,4.524,2.2,8.929,2.2a42.089,42.089,0,0,0,7.322-.362,5.046,5.046,0,0,0,4.363-5.149,5.053,5.053,0,0,0-1.905-4.057,5.525,5.525,0,0,0-3.492-1.194,9.317,9.317,0,0,0-1.4.132c-.376.058-.513.063-.518.063h-.01c-.689,0-1.706.016-3.093.049-.966.023-1.76.038-2.373.045,0-.24-.008-.513-.008-.821,0-.171,0-.354,0-.551,1.819-.157,3.279-.3,4.361-.419,1.723-.151,2.971-.256,3.816-.319q.077-.005.154-.015a5.014,5.014,0,0,0,4.71-5.2,5.113,5.113,0,0,0-1.691-3.873,5.4,5.4,0,0,0-1.419-.917,5.127,5.127,0,0,0,2.938-1.677,5.179,5.179,0,0,0,1.346-3.5,5.1,5.1,0,0,0-3.444-4.89,21.4,21.4,0,0,0-7.637-1.142Zm-2.615,10.714c.138-.022.275-.043.409-.061a16.078,16.078,0,0,1,2.205-.167,15.894,15.894,0,0,1,3.164.332c-.635.047-1.534.126-2.844.256q-1.695.167-2.949.288c.006-.223.01-.438.015-.648Z" transform="translate(596.411 -1718.417)" fill="#608a43"/>
        </g>
        <g id="Group_74" data-name="Group 74" transform="translate(41.468 2.248)">
          <path id="Path_1407" data-name="Path 1407" d="M-541.991,1753.77a10.4,10.4,0,0,1-6.516-1.84,4.407,4.407,0,0,1-2-3.534,2.425,2.425,0,0,1,.619-1.7,2.2,2.2,0,0,1,1.71-.676,2.255,2.255,0,0,1,2.149,1.5q.929,2,4.2,2a12.706,12.706,0,0,0,5.423-1.221q2.72-1.254,2.72-2.753a2.6,2.6,0,0,0-1.694-2.7,16.88,16.88,0,0,0-4.837-.553,13.05,13.05,0,0,1-5.049-1.059q-3.013-1.352-2.964-3.876.049-3.176,3.388-5.823a11.577,11.577,0,0,1,7.362-2.647,13.693,13.693,0,0,1,3.942.733q2.915.912,2.915,2.1a2.173,2.173,0,0,1-.586,1.5,2.141,2.141,0,0,1-1.677.733,12.068,12.068,0,0,1-2.289-.326,12.04,12.04,0,0,0-2.3-.326,8.607,8.607,0,0,0-3.991,1.01q-1.954,1.01-1.954,2.2a1.19,1.19,0,0,0,.594,1.019,4.318,4.318,0,0,0,1.784.561l4.153.228a9.851,9.851,0,0,1,5.717,2.036,6.7,6.7,0,0,1,2.313,5.407q0,4.2-4.788,6.368A20.092,20.092,0,0,1-541.991,1753.77Z" transform="translate(553.53 -1725.863)" fill="#fff"/>
          <path id="Path_1408" data-name="Path 1408" d="M-540.46,1725.9a13.687,13.687,0,0,1,3.942.733q2.915.912,2.915,2.1a2.172,2.172,0,0,1-.586,1.5,2.141,2.141,0,0,1-1.677.733,12.047,12.047,0,0,1-2.288-.326,12.06,12.06,0,0,0-2.3-.326,8.606,8.606,0,0,0-3.99,1.01q-1.955,1.009-1.954,2.2a1.189,1.189,0,0,0,.594,1.018,4.313,4.313,0,0,0,1.784.562l4.153.228a9.851,9.851,0,0,1,5.717,2.036,6.7,6.7,0,0,1,2.313,5.407q0,4.2-4.788,6.368a20.09,20.09,0,0,1-8.339,1.645,10.4,10.4,0,0,1-6.515-1.84,4.405,4.405,0,0,1-2-3.534,2.424,2.424,0,0,1,.62-1.7,2.2,2.2,0,0,1,1.71-.676,2.255,2.255,0,0,1,2.15,1.5q.929,2,4.2,2a12.7,12.7,0,0,0,5.423-1.222q2.72-1.254,2.72-2.753a2.6,2.6,0,0,0-1.694-2.7,16.9,16.9,0,0,0-4.838-.553,13.048,13.048,0,0,1-5.049-1.058q-3.013-1.352-2.964-3.876.049-3.176,3.388-5.823a11.58,11.58,0,0,1,7.362-2.646m0-3.02a14.577,14.577,0,0,0-9.238,3.3c-2.959,2.345-4.484,5.085-4.531,8.142a6.648,6.648,0,0,0,3,5.691,5.146,5.146,0,0,0-3.869,1.657,5.431,5.431,0,0,0-1.411,3.74,7.316,7.316,0,0,0,3.189,5.933,13.337,13.337,0,0,0,8.349,2.461,23.172,23.172,0,0,0,9.58-1.912c5.428-2.456,6.567-6.315,6.567-9.121a9.742,9.742,0,0,0-3.383-7.713,10.607,10.607,0,0,0-2.018-1.326,5.135,5.135,0,0,0,2.293-1.5,5.17,5.17,0,0,0,1.349-3.5c0-2.262-1.693-3.938-5.033-4.983a16.438,16.438,0,0,0-4.843-.871Zm-4.349,20.636a2.832,2.832,0,0,1-1.466-.253,6.054,6.054,0,0,0-.934-1.472,17.223,17.223,0,0,0,3.943.531c1.326.03,2.212.1,2.794.165l-.178.084a9.654,9.654,0,0,1-4.159.944Z" transform="translate(556.51 -1722.883)" fill="#608a43"/>
        </g>
        <g id="Group_75" data-name="Group 75" transform="translate(63.977 1.458)">
          <path id="Path_1409" data-name="Path 1409" d="M-484.84,1732.469q-1.271,0-3.958-.18-2.59-.179-3.958-.162.065,1.857.44,6.612.342,4.2.342,6.645,0,.554.114,1.645t.114,1.645a4.606,4.606,0,0,1-.521,2.2,2.079,2.079,0,0,1-1.906,1.254,2.392,2.392,0,0,1-1.58-.57,1.989,1.989,0,0,1-.766-1.6,4.363,4.363,0,0,1,.082-.692,4.512,4.512,0,0,0,.082-.708q0-.749-.106-2.264t-.106-2.28q0-2.183-.342-5.912-.39-4.283-.456-5.912h-.847a25.329,25.329,0,0,1-5.766-.521,2.057,2.057,0,0,1-1.807-2.134,2.21,2.21,0,0,1,.586-1.5,2.033,2.033,0,0,1,1.791-.717q.57.033,2.59.277a24.589,24.589,0,0,0,2.605.179q.994,0,2.973-.032t2.972-.033q1.237,0,3.713.171t3.714.171a2.268,2.268,0,0,1,1.637.635,2.085,2.085,0,0,1,.659,1.563,2.11,2.11,0,0,1-.659,1.572A2.25,2.25,0,0,1-484.84,1732.469Z" transform="translate(508.805 -1724.294)" fill="#fff"/>
          <path id="Path_1410" data-name="Path 1410" d="M-506.588,1724.334q.1,0,.2.008.57.033,2.59.277a24.59,24.59,0,0,0,2.605.179q.994,0,2.973-.032t2.972-.033q1.237,0,3.713.171t3.714.171a2.268,2.268,0,0,1,1.637.636,2.084,2.084,0,0,1,.659,1.563,2.11,2.11,0,0,1-.659,1.572,2.251,2.251,0,0,1-1.637.644q-1.271,0-3.958-.18-2.374-.164-3.722-.164h-.237q.065,1.856.44,6.613.342,4.2.342,6.645,0,.554.114,1.645t.114,1.645a4.606,4.606,0,0,1-.521,2.2,2.079,2.079,0,0,1-1.906,1.254,2.393,2.393,0,0,1-1.58-.57,1.989,1.989,0,0,1-.766-1.6,4.367,4.367,0,0,1,.082-.692,4.517,4.517,0,0,0,.082-.708q0-.749-.106-2.264t-.106-2.28q0-2.183-.342-5.912-.39-4.284-.456-5.913h-.847a25.338,25.338,0,0,1-5.766-.521,2.057,2.057,0,0,1-1.807-2.134,2.21,2.21,0,0,1,.586-1.5,2,2,0,0,1,1.59-.724m0-3.02a5.036,5.036,0,0,0-3.871,1.764,5.225,5.225,0,0,0-1.326,3.478,5.083,5.083,0,0,0,4.114,5.068,23.43,23.43,0,0,0,4.5.566c.072.906.165,1.972.277,3.208.219,2.385.33,4.281.33,5.638,0,.591.037,1.406.113,2.491.077,1.1.1,1.693.1,2,0,.034-.014.109-.037.24a7.028,7.028,0,0,0-.126,1.211,5.02,5.02,0,0,0,1.857,3.921,5.415,5.415,0,0,0,3.508,1.266,5.1,5.1,0,0,0,4.571-2.853,7.607,7.607,0,0,0,.876-3.619,19.6,19.6,0,0,0-.13-1.958c-.085-.813-.1-1.184-.1-1.333,0-1.727-.115-3.98-.352-6.89q-.144-1.831-.243-3.229l.542.036c1.878.126,3.239.186,4.167.186a5.254,5.254,0,0,0,3.745-1.5,5.1,5.1,0,0,0,1.571-3.734,5.075,5.075,0,0,0-1.585-3.739,5.273,5.273,0,0,0-3.73-1.479c-.752,0-1.932-.055-3.506-.164-1.736-.12-3.018-.178-3.921-.178-.665,0-1.654.011-3.022.034-1.3.021-2.28.032-2.923.032a21.7,21.7,0,0,1-2.258-.159c-1.833-.221-2.447-.273-2.742-.29q-.2-.014-.4-.014Z" transform="translate(511.785 -1721.314)" fill="#608a43"/>
        </g>
        <g id="Group_76" data-name="Group 76" transform="translate(88.505 2.068)">
          <path id="Path_1411" data-name="Path 1411" d="M-438.172,1753.087q-1.286-.048-2.59-3.029a26.088,26.088,0,0,1-1.482-4.43q-1.206.179-3.942.358a39.523,39.523,0,0,0-3.941.423q-.75,1.792-2.606,5.391a2.221,2.221,0,0,1-1.987,1.172,2.419,2.419,0,0,1-1.613-.61,1.954,1.954,0,0,1-.717-1.555q0-.831,2.378-5.635a1.943,1.943,0,0,1-.2-.945q.065-.782,1.58-1.222,2.312-4.006,5.147-8.306,4.071-6.173,5.016-6.173,1.792,0,2.395,2.167.325,1.743,1.026,5.228.994,4.691,2.427,10.733a20.8,20.8,0,0,0,.83,2.15,6.14,6.14,0,0,1,.587,2.1,2.037,2.037,0,0,1-.709,1.58A2.211,2.211,0,0,1-438.172,1753.087Zm-6.075-16.711q-1.27,2.183-3.5,5.944a16.494,16.494,0,0,1,2.28-.26q1.824-.114,2.3-.179Q-443.563,1739.765-444.247,1736.377Z" transform="translate(460.069 -1725.506)" fill="#fff"/>
          <path id="Path_1412" data-name="Path 1412" d="M-446.1,1725.546q1.792,0,2.395,2.167.325,1.743,1.026,5.228.994,4.69,2.427,10.733a20.8,20.8,0,0,0,.83,2.15,6.135,6.135,0,0,1,.586,2.1,2.035,2.035,0,0,1-.709,1.58,2.216,2.216,0,0,1-1.517.6h-.087q-1.286-.049-2.59-3.03a26.057,26.057,0,0,1-1.482-4.429q-1.206.179-3.942.359-2.574.179-3.941.422-.75,1.792-2.606,5.391a2.221,2.221,0,0,1-1.987,1.172,2.419,2.419,0,0,1-1.613-.61,1.954,1.954,0,0,1-.717-1.555q0-.831,2.378-5.636a1.941,1.941,0,0,1-.2-.944q.065-.783,1.58-1.222,2.312-4.006,5.147-8.306,4.071-6.173,5.016-6.173m-4.626,13.8a16.458,16.458,0,0,1,2.28-.26q1.824-.114,2.3-.179-.39-2.117-1.075-5.5-1.27,2.182-3.5,5.944m4.626-16.815c-1.929,0-3.288,1.089-7.537,7.531-1.7,2.573-3.277,5.105-4.708,7.544a4.107,4.107,0,0,0-2.508,3.4l0,.027a4.56,4.56,0,0,0,.014.821c-2.032,4.19-2.2,5.17-2.2,5.981a4.988,4.988,0,0,0,1.778,3.854,5.44,5.44,0,0,0,3.571,1.332,5.209,5.209,0,0,0,4.563-2.616c.038-.062.074-.126.108-.191.824-1.6,1.483-2.925,1.992-4.009.6-.063,1.294-.122,2.081-.177q.832-.055,1.529-.109c.283.852.592,1.651.924,2.391.568,1.3,2.067,4.7,5.237,4.824.071,0,.136,0,.2,0a5.226,5.226,0,0,0,3.533-1.375,5.083,5.083,0,0,0,1.713-3.829,8.531,8.531,0,0,0-.82-3.266c-.526-1.245-.662-1.646-.69-1.732-.939-3.96-1.745-7.525-2.4-10.6-.462-2.3-.8-4.04-1.015-5.171-.016-.087-.036-.172-.059-.256-.763-2.74-2.745-4.377-5.3-4.377Z" transform="translate(463.049 -1722.526)" fill="#608a43"/>
        </g>
        <g id="Group_77" data-name="Group 77" transform="translate(112.92 1.113)">
          <path id="Path_1413" data-name="Path 1413" d="M-391.7,1751.851a2.316,2.316,0,0,1-1.613-.683,27.412,27.412,0,0,0-10.847-6.418q.179,4.74.179,5.261a2.125,2.125,0,0,1-.651,1.572,2.227,2.227,0,0,1-1.629.643,2.225,2.225,0,0,1-1.629-.643,2.124,2.124,0,0,1-.652-1.572q0-1.222.033-3.657t.033-3.656l.032-13.144a3.164,3.164,0,0,1,.636-1.922,2.45,2.45,0,0,1,2.3-.994q3.958.294,4.056.31a11.585,11.585,0,0,1,3.876,1.091q6.954,3.5,6.954,8.681a5.5,5.5,0,0,1-1.458,3.77,11.088,11.088,0,0,1-4.374,2.761,24.245,24.245,0,0,1,6.5,4.919,2.15,2.15,0,0,1,.57,1.449,2.109,2.109,0,0,1-.684,1.572A2.262,2.262,0,0,1-391.7,1751.851Zm-10.441-20.489q-.13-.015-1.905-.13v8.649q.407.016.717.016a13.429,13.429,0,0,0,5.912-.994,5.9,5.9,0,0,0,1.523-1.124q.692-.7.693-1.058,0-1.824-2.313-3.519A9.409,9.409,0,0,0-402.138,1731.362Z" transform="translate(411.559 -1723.608)" fill="#fff"/>
          <path id="Path_1414" data-name="Path 1414" d="M-408.757,1723.648q.131,0,.267.011,3.958.294,4.056.31a11.608,11.608,0,0,1,3.876,1.091q6.954,3.5,6.954,8.682a5.5,5.5,0,0,1-1.458,3.77,11.088,11.088,0,0,1-4.374,2.761,24.253,24.253,0,0,1,6.5,4.919,2.151,2.151,0,0,1,.57,1.449,2.108,2.108,0,0,1-.684,1.572,2.263,2.263,0,0,1-1.628.66,2.317,2.317,0,0,1-1.613-.683,27.413,27.413,0,0,0-10.847-6.417q.179,4.739.179,5.261a2.126,2.126,0,0,1-.651,1.572,2.227,2.227,0,0,1-1.629.643,2.225,2.225,0,0,1-1.629-.643,2.124,2.124,0,0,1-.652-1.572q0-1.222.033-3.657t.033-3.656l.032-13.144a3.163,3.163,0,0,1,.636-1.922,2.406,2.406,0,0,1,2.029-1m2.449,13.269a13.419,13.419,0,0,0,5.912-.994,5.874,5.874,0,0,0,1.523-1.123q.692-.7.692-1.058,0-1.824-2.313-3.519a9.409,9.409,0,0,0-4.626-1.841q-.13-.015-1.905-.13v8.649q.407.016.717.016m-2.449-16.289h0a5.431,5.431,0,0,0-4.445,2.213l-.016.021a6.223,6.223,0,0,0-1.224,3.712l-.032,13.137c0,.8-.011,2.021-.032,3.623s-.033,2.861-.033,3.7a5.118,5.118,0,0,0,1.55,3.72,5.223,5.223,0,0,0,3.75,1.515,5.227,5.227,0,0,0,3.75-1.514,5.124,5.124,0,0,0,1.55-3.721c0-.1,0-.283-.015-.689a26.188,26.188,0,0,1,5.6,4.048,5.329,5.329,0,0,0,3.678,1.5,5.267,5.267,0,0,0,3.725-1.507,5.1,5.1,0,0,0,1.607-3.745,5.163,5.163,0,0,0-1.317-3.437,20.583,20.583,0,0,0-3.029-2.8,10.478,10.478,0,0,0,.886-.881,8.577,8.577,0,0,0,2.222-5.778c0-4.672-2.9-8.5-8.616-11.379a14.63,14.63,0,0,0-4.87-1.392h0c-.238-.027-.927-.082-4.2-.323-.158-.013-.326-.019-.49-.019Zm4.753,13.155v-2.068a7.224,7.224,0,0,1,1.737.951,5.847,5.847,0,0,1,.611.506c-.036.021-.072.041-.11.059a6.547,6.547,0,0,1-2.239.552Z" transform="translate(414.539 -1720.628)" fill="#608a43"/>
        </g>
        <g id="Group_78" data-name="Group 78" transform="translate(132.937 1.458)">
          <path id="Path_1415" data-name="Path 1415" d="M-347.821,1732.469q-1.271,0-3.958-.18-2.59-.179-3.958-.162.065,1.857.44,6.612.342,4.2.342,6.645,0,.554.114,1.645t.114,1.645a4.606,4.606,0,0,1-.521,2.2,2.08,2.08,0,0,1-1.906,1.254,2.392,2.392,0,0,1-1.579-.57,1.988,1.988,0,0,1-.766-1.6,4.432,4.432,0,0,1,.081-.692,4.443,4.443,0,0,0,.082-.708q0-.749-.106-2.264t-.106-2.28q0-2.183-.342-5.912-.391-4.283-.456-5.912h-.847a25.324,25.324,0,0,1-5.766-.521,2.057,2.057,0,0,1-1.808-2.134,2.213,2.213,0,0,1,.586-1.5,2.034,2.034,0,0,1,1.792-.717q.57.033,2.589.277a24.605,24.605,0,0,0,2.606.179q.993,0,2.972-.032t2.973-.033q1.237,0,3.713.171t3.714.171a2.268,2.268,0,0,1,1.637.635,2.085,2.085,0,0,1,.66,1.563,2.11,2.11,0,0,1-.66,1.572A2.25,2.25,0,0,1-347.821,1732.469Z" transform="translate(371.786 -1724.294)" fill="#fff"/>
          <path id="Path_1416" data-name="Path 1416" d="M-369.569,1724.334q.1,0,.2.008.57.033,2.589.277a24.606,24.606,0,0,0,2.606.179q.993,0,2.972-.032t2.973-.033q1.237,0,3.713.171t3.714.171a2.268,2.268,0,0,1,1.637.636,2.085,2.085,0,0,1,.66,1.563,2.111,2.111,0,0,1-.66,1.572,2.251,2.251,0,0,1-1.637.644q-1.271,0-3.958-.18-2.374-.164-3.721-.164h-.237q.065,1.856.44,6.613.342,4.2.342,6.645,0,.554.114,1.645t.114,1.645a4.606,4.606,0,0,1-.521,2.2,2.08,2.08,0,0,1-1.906,1.254,2.393,2.393,0,0,1-1.579-.57,1.988,1.988,0,0,1-.766-1.6,4.432,4.432,0,0,1,.081-.692,4.449,4.449,0,0,0,.082-.708q0-.749-.106-2.264t-.106-2.28q0-2.183-.342-5.912-.391-4.284-.456-5.913h-.847a25.332,25.332,0,0,1-5.766-.521,2.057,2.057,0,0,1-1.808-2.134,2.213,2.213,0,0,1,.586-1.5,2,2,0,0,1,1.591-.724m0-3.02a5.036,5.036,0,0,0-3.871,1.764,5.226,5.226,0,0,0-1.326,3.478,5.084,5.084,0,0,0,4.114,5.068,23.421,23.421,0,0,0,4.5.566c.072.906.165,1.972.277,3.208.218,2.385.33,4.281.33,5.638,0,.591.037,1.406.113,2.491.077,1.1.1,1.693.1,2,0,.034-.014.109-.036.24a7.032,7.032,0,0,0-.127,1.211,5.02,5.02,0,0,0,1.858,3.921,5.414,5.414,0,0,0,3.507,1.266,5.1,5.1,0,0,0,4.571-2.853,7.615,7.615,0,0,0,.876-3.619c0-.481-.042-1.1-.13-1.958-.085-.813-.1-1.184-.1-1.333,0-1.727-.115-3.98-.352-6.89q-.144-1.831-.242-3.229l.542.036c1.878.126,3.238.186,4.166.186a5.254,5.254,0,0,0,3.745-1.5,5.1,5.1,0,0,0,1.571-3.734,5.075,5.075,0,0,0-1.586-3.739,5.271,5.271,0,0,0-3.73-1.479c-.752,0-1.932-.055-3.505-.164-1.736-.12-3.019-.178-3.921-.178-.666,0-1.654.011-3.022.034-1.3.021-2.28.032-2.923.032a21.7,21.7,0,0,1-2.258-.159c-1.833-.221-2.447-.273-2.742-.29q-.2-.014-.4-.014Z" transform="translate(374.766 -1721.314)" fill="#608a43"/>
        </g>
      </g>
    </g>
  </g>
</svg>
