<svg xmlns="http://www.w3.org/2000/svg" width="59" height="59" viewBox="0 0 59 59">
  <g id="Group_66" data-name="Group 66" transform="translate(-494 -741)">
    <g id="close_button" transform="translate(1371.92 -322.12)">
      <path id="Path_1392" data-name="Path 1392" d="M-833.224,1063.12h-30.393a14.319,14.319,0,0,0-14.3,14.3v30.4a14.319,14.319,0,0,0,14.3,14.3h30.393a14.319,14.319,0,0,0,14.3-14.3v-30.4A14.319,14.319,0,0,0-833.224,1063.12Zm9.646,44.7a9.645,9.645,0,0,1-9.646,9.646h-30.393a9.648,9.648,0,0,1-9.646-9.646v-30.4a9.645,9.645,0,0,1,9.646-9.642h30.393a9.642,9.642,0,0,1,9.646,9.642Z" transform="translate(0)" fill="#8a362b"/>
      <path id="Path_1393" data-name="Path 1393" d="M-825.881,1075.12h-30.393a9.645,9.645,0,0,0-9.646,9.642v30.4a9.648,9.648,0,0,0,9.646,9.646h30.393a9.645,9.645,0,0,0,9.646-9.646v-30.4A9.642,9.642,0,0,0-825.881,1075.12Zm2.636,37.186a5.487,5.487,0,0,1-5.489,5.485h-24.687a5.487,5.487,0,0,1-5.485-5.485v-24.687a5.487,5.487,0,0,1,5.485-5.488h24.687a5.488,5.488,0,0,1,5.489,5.488Z" transform="translate(-7.342 -7.342)" fill="#e82c19"/>
      <path id="Path_1394" data-name="Path 1394" d="M-812.19,1098.669v24.687a5.487,5.487,0,0,1-5.489,5.485h-24.687a5.487,5.487,0,0,1-5.485-5.485v-24.687a5.487,5.487,0,0,1,5.485-5.489h24.687A5.488,5.488,0,0,1-812.19,1098.669Z" transform="translate(-18.398 -18.392)" fill="#ffafa7"/>
      <path id="Path_1395" data-name="Path 1395" d="M-816.731,1108.758l-5.49,5.49-5.473-5.473a4.322,4.322,0,0,0-6.113,0h0a4.322,4.322,0,0,0,0,6.112l5.473,5.473-5.456,5.456a4.323,4.323,0,0,0,0,6.114,4.323,4.323,0,0,0,6.112,0l5.456-5.456,5.473,5.473a4.322,4.322,0,0,0,6.112,0h0a4.322,4.322,0,0,0,0-6.113l-5.472-5.472,5.49-5.491a4.322,4.322,0,0,0,0-6.112A4.322,4.322,0,0,0-816.731,1108.758Z" transform="translate(-26.216 -27.149)" fill="#8a362b"/>
    </g>
  </g>
</svg>
