<svg xmlns="http://www.w3.org/2000/svg" width="58.943" height="58.943" viewBox="0 0 58.943 58.943">
  <g id="Group_67" data-name="Group 67" transform="translate(-565 -741)">
    <g id="close_button" transform="translate(1639.92 -325.25)">
      <path id="Path_1396" data-name="Path 1396" d="M-1030.263,1066.25h-30.367a14.305,14.305,0,0,0-14.29,14.29v30.367a14.3,14.3,0,0,0,14.29,14.286h30.367a14.3,14.3,0,0,0,14.286-14.286V1080.54A14.3,14.3,0,0,0-1030.263,1066.25Zm9.632,44.657a9.632,9.632,0,0,1-9.632,9.632h-30.367a9.635,9.635,0,0,1-9.636-9.632V1080.54a9.639,9.639,0,0,1,9.636-9.636h30.367a9.635,9.635,0,0,1,9.632,9.636Z" transform="translate(0 0)" fill="#608a43"/>
      <path id="Path_1397" data-name="Path 1397" d="M-1013.284,1087.886v30.367a9.632,9.632,0,0,1-9.632,9.633h-30.367a9.635,9.635,0,0,1-9.636-9.633v-30.367a9.639,9.639,0,0,1,9.636-9.636h30.367A9.635,9.635,0,0,1-1013.284,1087.886Z" transform="translate(-7.347 -7.347)" fill="#c2e895"/>
      <path id="Rectangle_6" data-name="Rectangle 6" d="M14.137,0h7.351A14.137,14.137,0,0,1,35.626,14.137v7.351A14.137,14.137,0,0,1,21.488,35.626H14.138A14.138,14.138,0,0,1,0,21.488V14.137A14.137,14.137,0,0,1,14.137,0Z" transform="translate(-1063.26 1077.91)" fill="#efffd9"/>
      <path id="Path_1398" data-name="Path 1398" d="M-1023.65,1134.539a4.107,4.107,0,0,1-5.809,0l-2.966-2.885-4.331-4.153a4.107,4.107,0,0,1,0-5.808h0a4.107,4.107,0,0,1,5.809,0l4.392,4.134,11.387-11.387a4.106,4.106,0,0,1,5.808,0h0a4.107,4.107,0,0,1,0,5.808Z" transform="translate(-22.629 -28.766)" fill="#608a43"/>
    </g>
  </g>
</svg>
