<svg xmlns="http://www.w3.org/2000/svg" xmlns:xlink="http://www.w3.org/1999/xlink" width="226.536" height="78.102" viewBox="0 0 226.536 78.102">
  <defs>
    <linearGradient id="linear-gradient" x1="0.5" y1="1" x2="0.5" gradientUnits="objectBoundingBox">
      <stop offset="0.006" stop-color="#89be5e"/>
      <stop offset="1" stop-color="#c2e895"/>
    </linearGradient>
    <clipPath id="clip-path">
      <path id="Path_1327" data-name="Path 1327" d="M548.716,452.786V426.363h0a6.606,6.606,0,0,0,6.606-6.606v-6.8a6.412,6.412,0,0,0-6.412-6.411H347.242a6.411,6.411,0,0,0-6.411,6.411v6.8a6.605,6.605,0,0,0,6.606,6.606h0v26.423h0a6.605,6.605,0,0,0-6.606,6.606v6.8a6.411,6.411,0,0,0,6.411,6.411H548.909a6.412,6.412,0,0,0,6.412-6.411v-6.8a6.606,6.606,0,0,0-6.606-6.606Z" transform="translate(-340.831 -406.546)" fill="none"/>
    </clipPath>
  </defs>
  <g id="Group_29" data-name="Group 29" transform="translate(-92.732 -336.109)">
    <g id="Group_10" data-name="Group 10" transform="translate(92.732 336.109)">
      <path id="Path_1324" data-name="Path 1324" d="M548.716,452.786V426.363h0a6.606,6.606,0,0,0,6.606-6.606v-6.8a6.412,6.412,0,0,0-6.412-6.411H347.242a6.411,6.411,0,0,0-6.411,6.411v6.8a6.605,6.605,0,0,0,6.606,6.606h0v26.423h0a6.605,6.605,0,0,0-6.606,6.606v6.8a6.411,6.411,0,0,0,6.411,6.411H548.909a6.412,6.412,0,0,0,6.412-6.411v-6.8a6.606,6.606,0,0,0-6.606-6.606Z" transform="translate(-334.808 -400.523)" fill="url(#linear-gradient)"/>
      <path id="Path_1325" data-name="Path 1325" d="M542.932,400.569a6.412,6.412,0,0,1,6.412,6.411v6.8a6.606,6.606,0,0,1-6.606,6.606v26.423a6.606,6.606,0,0,1,6.606,6.606v6.8a6.412,6.412,0,0,1-6.412,6.411H341.265a6.411,6.411,0,0,1-6.411-6.411v-6.8a6.605,6.605,0,0,1,6.606-6.606h0V420.386h0a6.605,6.605,0,0,1-6.606-6.606v-6.8a6.411,6.411,0,0,1,6.411-6.411H542.932m0-6.023H341.265a12.448,12.448,0,0,0-12.434,12.434v6.8a12.64,12.64,0,0,0,6.605,11.1v17.439a12.639,12.639,0,0,0-6.605,11.1v6.8a12.448,12.448,0,0,0,12.434,12.434H542.932a12.449,12.449,0,0,0,12.435-12.434v-6.8a12.64,12.64,0,0,0-6.605-11.1V424.878a12.641,12.641,0,0,0,6.605-11.1v-6.8a12.448,12.448,0,0,0-12.435-12.434Z" transform="translate(-328.831 -394.546)" fill="#608a43"/>
      <g id="Group_9" data-name="Group 9" transform="translate(6.023 6.023)" opacity="0.5">
        <g id="Group_8" data-name="Group 8" clip-path="url(#clip-path)">
          <path id="Path_1326" data-name="Path 1326" d="M314.318,458.936v-5.031h88.2v13.538H435.93V440.367h59.189v17.5h57.635V462.9H490.088V445.4H440.961v27.077H397.484V458.936Z" transform="translate(-327.625 -423.392)" fill="#fff"/>
        </g>
      </g>
    </g>
    <g id="Group_15" data-name="Group 15" transform="translate(167.557 358.206)">
      <g id="Group_14" data-name="Group 14">
        <g id="Group_11" data-name="Group 11" transform="translate(0 1.267)">
          <path id="Path_1328" data-name="Path 1328" d="M503.739,472.591q-1.284-.049-2.583-3.021a26.07,26.07,0,0,1-1.478-4.418q-1.2.179-3.93.357-2.566.179-3.931.423-.747,1.787-2.6,5.376a2.214,2.214,0,0,1-1.982,1.169,2.414,2.414,0,0,1-1.608-.609,1.949,1.949,0,0,1-.715-1.551q0-.828,2.372-5.62a1.934,1.934,0,0,1-.195-.942q.065-.779,1.576-1.218,2.306-4,5.132-8.283,4.061-6.156,5-6.156,1.787,0,2.388,2.161.325,1.738,1.023,5.214.991,4.677,2.42,10.7a20.889,20.889,0,0,0,.829,2.144,6.119,6.119,0,0,1,.585,2.095,2.028,2.028,0,0,1-.707,1.575A2.2,2.2,0,0,1,503.739,472.591Zm-6.058-16.665q-1.267,2.177-3.492,5.928a16.156,16.156,0,0,1,2.274-.26q1.819-.114,2.29-.179Q498.363,459.3,497.681,455.926Z" transform="translate(-481.401 -444.584)" fill="#fff"/>
          <path id="Path_1329" data-name="Path 1329" d="M495.315,444.61q1.786,0,2.388,2.161.325,1.738,1.023,5.214.991,4.677,2.42,10.7a20.916,20.916,0,0,0,.829,2.144,6.119,6.119,0,0,1,.585,2.095,2.028,2.028,0,0,1-.707,1.575,2.208,2.208,0,0,1-1.513.6h-.086q-1.284-.049-2.583-3.021a26.071,26.071,0,0,1-1.478-4.418q-1.2.179-3.93.357-2.567.179-3.931.423-.747,1.787-2.6,5.376a2.214,2.214,0,0,1-1.981,1.169,2.413,2.413,0,0,1-1.608-.609,1.949,1.949,0,0,1-.715-1.551q0-.828,2.372-5.62a1.935,1.935,0,0,1-.195-.942q.065-.779,1.576-1.218,2.306-4,5.132-8.283,4.061-6.156,5-6.156M490.7,458.368a16.162,16.162,0,0,1,2.274-.26q1.819-.114,2.29-.179-.39-2.111-1.072-5.49-1.267,2.176-3.492,5.928m4.613-17.271c-2.278,0-3.835,1.518-7.936,7.735-1.669,2.532-3.224,5.021-4.633,7.416a4.543,4.543,0,0,0-2.643,3.73l0,.029a5.067,5.067,0,0,0,0,.766c-2.02,4.177-2.187,5.166-2.187,6.057a5.47,5.47,0,0,0,1.949,4.225,5.927,5.927,0,0,0,3.887,1.448,5.751,5.751,0,0,0,4.979-2.85c.044-.072.086-.147.124-.222.76-1.474,1.382-2.719,1.874-3.758q.786-.078,1.777-.147.605-.039,1.14-.079.378,1.09.812,2.059c.547,1.251,2.19,4.977,5.662,5.108.077,0,.148,0,.219,0a5.709,5.709,0,0,0,3.859-1.5,5.565,5.565,0,0,0,1.875-4.192,8.965,8.965,0,0,0-.857-3.452c-.491-1.161-.634-1.568-.668-1.67-.933-3.937-1.734-7.479-2.38-10.53-.46-2.287-.8-4.019-1.011-5.149-.018-.1-.042-.2-.069-.3-.825-2.963-2.983-4.731-5.772-4.731Z" transform="translate(-477.914 -441.097)" fill="#608a43"/>
        </g>
        <g id="Group_12" data-name="Group 12" transform="translate(25.176)">
          <path id="Path_1330" data-name="Path 1330" d="M537.333,471.009a2.254,2.254,0,0,1-1.608-.658,2.1,2.1,0,0,1-.65-1.551q0-1.624.155-4.872t.154-4.873q0-1.8-.073-5.408t-.073-5.409a2.584,2.584,0,0,1,.861-1.779,2.546,2.546,0,0,1,1.836-.885,9.943,9.943,0,0,1,2.7,1.007q2.518,1.2,2.988,1.348a20.785,20.785,0,0,1,8.122,4.776,11.607,11.607,0,0,1,4.012,8.511,11.529,11.529,0,0,1-5.165,9.485q-2.7,1.754-7.585,1.754a12.826,12.826,0,0,1-2.729-.341A9.4,9.4,0,0,1,537.333,471.009Zm9.128-16.7a54.291,54.291,0,0,0-6.757-3.119v16.08a4.805,4.805,0,0,0,1.454.609,7.6,7.6,0,0,0,1.827.2,9.749,9.749,0,0,0,5.035-.975,6.666,6.666,0,0,0,2.3-2.517,6.932,6.932,0,0,0,.853-3.314Q551.172,457.252,546.461,454.312Z" transform="translate(-531.562 -442.06)" fill="#fff"/>
          <path id="Path_1331" data-name="Path 1331" d="M534.447,442.086a9.943,9.943,0,0,1,2.7,1.007q2.517,1.2,2.988,1.348a20.782,20.782,0,0,1,8.122,4.775,11.607,11.607,0,0,1,4.012,8.511,11.529,11.529,0,0,1-5.165,9.485q-2.7,1.754-7.585,1.754a12.83,12.83,0,0,1-2.729-.341,9.4,9.4,0,0,1-2.94-1.1,2.254,2.254,0,0,1-1.608-.658,2.1,2.1,0,0,1-.65-1.551q0-1.624.155-4.872t.154-4.873q0-1.8-.073-5.409t-.073-5.408a2.584,2.584,0,0,1,.861-1.779,2.546,2.546,0,0,1,1.835-.885M539.5,464.6a9.75,9.75,0,0,0,5.035-.975,6.667,6.667,0,0,0,2.3-2.518,6.931,6.931,0,0,0,.853-3.314q0-4.028-4.71-6.968a54.337,54.337,0,0,0-6.757-3.119v16.08a4.8,4.8,0,0,0,1.454.609,7.6,7.6,0,0,0,1.827.2m-5.051-26.026a6.521,6.521,0,0,0-6.21,6.178c0,1.233.024,3.025.074,5.48.048,2.377.072,4.173.072,5.337,0,1.023-.051,2.606-.151,4.706-.106,2.239-.158,3.887-.158,5.039a5.577,5.577,0,0,0,1.7,4.052,5.688,5.688,0,0,0,2.967,1.564,14.054,14.054,0,0,0,3.273,1.125,16.2,16.2,0,0,0,3.5.428c3.991,0,7.1-.76,9.5-2.322a15.042,15.042,0,0,0,6.763-12.431,15.031,15.031,0,0,0-5.093-11.046,24.35,24.35,0,0,0-9.458-5.579c-.115-.044-.645-.261-2.57-1.18l-.03-.014c-2.143-1-3.2-1.336-4.18-1.336Zm5.284,22.511v-8.011a14.767,14.767,0,0,1,1.374.727c3.067,1.914,3.067,3.479,3.067,3.993a3.433,3.433,0,0,1-.436,1.654,3.177,3.177,0,0,1-1.1,1.219,6.631,6.631,0,0,1-2.908.419Z" transform="translate(-528.075 -438.573)" fill="#608a43"/>
        </g>
        <g id="Group_13" data-name="Group 13" transform="translate(49.182)">
          <path id="Path_1332" data-name="Path 1332" d="M585.164,471.009a2.255,2.255,0,0,1-1.608-.658,2.1,2.1,0,0,1-.65-1.551q0-1.624.154-4.872t.155-4.873q0-1.8-.073-5.408t-.073-5.409a2.585,2.585,0,0,1,.861-1.779,2.546,2.546,0,0,1,1.835-.885,9.933,9.933,0,0,1,2.7,1.007q2.518,1.2,2.989,1.348a20.782,20.782,0,0,1,8.121,4.776,11.607,11.607,0,0,1,4.012,8.511,11.529,11.529,0,0,1-5.165,9.485q-2.7,1.754-7.585,1.754a12.828,12.828,0,0,1-2.729-.341A9.4,9.4,0,0,1,585.164,471.009Zm9.129-16.7a54.334,54.334,0,0,0-6.757-3.119v16.08a4.8,4.8,0,0,0,1.453.609,7.6,7.6,0,0,0,1.827.2,9.751,9.751,0,0,0,5.035-.975,6.66,6.66,0,0,0,2.3-2.517A6.924,6.924,0,0,0,599,461.28Q599,457.252,594.292,454.312Z" transform="translate(-579.393 -442.06)" fill="#fff"/>
          <path id="Path_1333" data-name="Path 1333" d="M582.278,442.086a9.935,9.935,0,0,1,2.7,1.007q2.518,1.2,2.989,1.348a20.781,20.781,0,0,1,8.121,4.775,11.607,11.607,0,0,1,4.012,8.511,11.53,11.53,0,0,1-5.165,9.485q-2.7,1.754-7.585,1.754a12.835,12.835,0,0,1-2.729-.341,9.4,9.4,0,0,1-2.94-1.1,2.256,2.256,0,0,1-1.608-.658,2.1,2.1,0,0,1-.649-1.551q0-1.624.154-4.872t.154-4.873q0-1.8-.073-5.409t-.073-5.408a2.585,2.585,0,0,1,.861-1.779,2.546,2.546,0,0,1,1.835-.885m5.052,22.512a9.752,9.752,0,0,0,5.035-.975,6.66,6.66,0,0,0,2.3-2.518,6.923,6.923,0,0,0,.853-3.314q0-4.028-4.71-6.968a54.384,54.384,0,0,0-6.757-3.119v16.08a4.8,4.8,0,0,0,1.453.609,7.6,7.6,0,0,0,1.827.2m-5.052-26.026a6.522,6.522,0,0,0-6.21,6.178c0,1.233.024,3.025.074,5.48.048,2.377.072,4.173.072,5.337,0,1.023-.051,2.606-.151,4.706-.106,2.239-.158,3.887-.158,5.039a5.578,5.578,0,0,0,1.695,4.052,5.691,5.691,0,0,0,2.968,1.564,14.057,14.057,0,0,0,3.272,1.125,16.2,16.2,0,0,0,3.5.428c3.991,0,7.1-.76,9.5-2.322a15.041,15.041,0,0,0,6.763-12.431,15.03,15.03,0,0,0-5.092-11.046,24.355,24.355,0,0,0-9.459-5.579c-.115-.044-.645-.261-2.57-1.18l-.03-.014c-2.143-1-3.2-1.336-4.18-1.336Zm5.284,22.511v-8.011a14.78,14.78,0,0,1,1.374.727C592,455.713,592,457.278,592,457.793a3.434,3.434,0,0,1-.436,1.654,3.173,3.173,0,0,1-1.1,1.219,6.633,6.633,0,0,1-2.908.419Z" transform="translate(-575.906 -438.573)" fill="#608a43"/>
        </g>
      </g>
    </g>
  </g>
</svg>
