<svg xmlns="http://www.w3.org/2000/svg" width="72.313" height="78.103" viewBox="0 0 72.313 78.103">
  <g id="Group_109" data-name="Group 109" transform="translate(-817 -475.151)">
    <g id="Group_86" data-name="Group 86" transform="translate(1862.513 -928.118)">
      <circle id="Ellipse_15" data-name="Ellipse 15" cx="11.967" cy="11.967" r="11.967" transform="matrix(0.34, -0.94, 0.94, 0.34, -1004.547, 1437.208)" fill="#fff"/>
      <circle id="Ellipse_16" data-name="Ellipse 16" cx="11.967" cy="11.967" r="11.967" transform="translate(-1045.513 1430.029) rotate(-45)" fill="#fff"/>
      <path id="Path_1417" data-name="Path 1417" d="M-1012.773,1442.2a11.911,11.911,0,0,1,1.938,6.526,11.967,11.967,0,0,1-11.967,11.968,11.91,11.91,0,0,1-7.058-2.305,11.953,11.953,0,0,0,10.029,5.441,11.967,11.967,0,0,0,11.967-11.967A11.949,11.949,0,0,0-1012.773,1442.2Z" transform="translate(-8.778 -21.83)" fill="#efefef"/>
      <path id="Path_1418" data-name="Path 1418" d="M-923.141,1442.2a11.907,11.907,0,0,1,1.939,6.526,11.967,11.967,0,0,1-11.967,11.968,11.908,11.908,0,0,1-7.058-2.305,11.954,11.954,0,0,0,10.029,5.441,11.967,11.967,0,0,0,11.967-11.967A11.948,11.948,0,0,0-923.141,1442.2Z" transform="translate(-59.042 -21.83)" fill="#efefef"/>
      <g id="Group_82" data-name="Group 82" transform="translate(-1041.106 1417.513)">
        <path id="Path_1419" data-name="Path 1419" d="M-1022.962,1460.733a12.531,12.531,0,0,1-12.517-12.517,12.531,12.531,0,0,1,12.517-12.517,12.531,12.531,0,0,1,12.517,12.517A12.531,12.531,0,0,1-1022.962,1460.733Zm0-23.935a11.431,11.431,0,0,0-11.418,11.418,11.431,11.431,0,0,0,11.418,11.417,11.43,11.43,0,0,0,11.417-11.417A11.431,11.431,0,0,0-1022.962,1436.8Z" transform="translate(1035.479 -1435.699)" fill="#231f20"/>
      </g>
      <path id="Path_1420" data-name="Path 1420" d="M-1008.845,1455.594a6.738,6.738,0,0,1-6.739,6.738,6.738,6.738,0,0,1-6.738-6.738,6.738,6.738,0,0,1,6.738-6.738A6.738,6.738,0,0,1-1008.845,1455.594Z" transform="translate(-13.005 -25.564)" fill="#231f20"/>
      <circle id="Ellipse_17" data-name="Ellipse 17" cx="2.758" cy="2.758" r="2.758" transform="translate(-1033.561 1430.857) rotate(-76.717)" fill="#fff"/>
      <path id="Path_1421" data-name="Path 1421" d="M-919.214,1455.594a6.738,6.738,0,0,1-6.738,6.738,6.738,6.738,0,0,1-6.738-6.738,6.738,6.738,0,0,1,6.738-6.738A6.738,6.738,0,0,1-919.214,1455.594Z" transform="translate(-63.269 -25.564)" fill="#231f20"/>
      <circle id="Ellipse_18" data-name="Ellipse 18" cx="2.758" cy="2.758" r="2.758" transform="translate(-994.039 1431.087) rotate(-80.783)" fill="#fff"/>
      <g id="Group_83" data-name="Group 83" transform="translate(-1001.738 1417.513)">
        <path id="Path_1422" data-name="Path 1422" d="M-933.33,1460.733a12.531,12.531,0,0,1-12.517-12.517A12.531,12.531,0,0,1-933.33,1435.7a12.531,12.531,0,0,1,12.517,12.517A12.531,12.531,0,0,1-933.33,1460.733Zm0-23.935a11.431,11.431,0,0,0-11.417,11.418,11.43,11.43,0,0,0,11.417,11.417,11.431,11.431,0,0,0,11.418-11.417A11.431,11.431,0,0,0-933.33,1436.8Z" transform="translate(945.847 -1435.699)" fill="#231f20"/>
      </g>
      <path id="Path_1423" data-name="Path 1423" d="M-1034.218,1410.056c1.48,2.476,3.389-1.573,8.76-2.4,4.478-.689,6.972,2.173,7.915.272s-2.29-4.97-8.845-4.357C-1031.266,1404.025-1035.936,1407.181-1034.218,1410.056Z" transform="translate(-6.131 -0.124)" fill="#231f20"/>
      <path id="Path_1424" data-name="Path 1424" d="M-912.4,1410.055c-1.536,2.442-3.352-1.651-8.7-2.6-4.461-.792-7.021,2.013-7.92.09s2.4-4.917,8.943-4.154C-915.217,1403.958-910.621,1407.22-912.4,1410.055Z" transform="translate(-65.242)" fill="#231f20"/>
      <path id="Path_1425" data-name="Path 1425" d="M-1030.526,1510.674s2.469,17.36,9.71,23.973c5.177,4.727,12.819,6.6,21.922,6.937,10.407-.378,15.116-2.212,20.283-6.95,7.227-6.627,9.661-23.993,9.661-23.993s-10.763,9.253-30.788,9.253C-1019.235,1519.9-1030.526,1510.674-1030.526,1510.674Z" transform="translate(-8.404 -60.213)" fill="#231f20"/>
      <path id="Path_1426" data-name="Path 1426" d="M-992.1,1534.093a44.991,44.991,0,0,0,23.988-6.761,2.967,2.967,0,0,0,1.32-3.044l-.929-4.973a55.368,55.368,0,0,1-24.379,5.315,55.835,55.835,0,0,1-24.714-5.545c.005,1.65-.047,3.822-.091,5.3a2.965,2.965,0,0,0,1.419,2.617C-1012.01,1529.124-1002.788,1534.063-992.1,1534.093Z" transform="translate(-16.042 -64.947)" fill="#fff"/>
      <path id="Path_1427" data-name="Path 1427" d="M-992.032,1524.629a55.832,55.832,0,0,1-24.713-5.545c0,.775-.008,1.665-.024,2.545a2.969,2.969,0,0,0,1.353,1.9c3.475,2.124,12.7,7.063,23.385,7.093a44.985,44.985,0,0,0,23.988-6.761,2.968,2.968,0,0,0,1.031-1.124l-.64-3.427A55.371,55.371,0,0,1-992.032,1524.629Z" transform="translate(-16.119 -64.947)" fill="#efefef"/>
      <path id="Path_1428" data-name="Path 1428" d="M-992.568,1560.108c-14.07.316-25.336-7.772-25.624-8.32h0a21.012,21.012,0,0,0,4.269,5.933c5.177,4.727,12.819,6.6,21.922,6.938,10.406-.378,15.116-2.213,20.283-6.95a20.094,20.094,0,0,0,3.908-5.276C-967.727,1552.276-976.1,1559.737-992.568,1560.108Z" transform="translate(-15.321 -83.286)" fill="#fff"/>
      <g id="Group_84" data-name="Group 84" transform="translate(-1042.195 1447.655)">
        <path id="Path_1429" data-name="Path 1429" d="M-1037.18,1509.648a4.048,4.048,0,0,1,.656-2.9,3.921,3.921,0,0,1,2.533-1.623,3.93,3.93,0,0,1,1.739.066.367.367,0,0,0,.2-.708,4.8,4.8,0,0,0-3.586.475,4.664,4.664,0,0,0-2.151,2.814,4.787,4.787,0,0,0-.094,2.073.37.37,0,0,0,.452.256.375.375,0,0,0,.256-.451Z" transform="translate(1037.958 -1504.325)" fill="#231f20"/>
      </g>
      <g id="Group_85" data-name="Group 85" transform="translate(-980.748 1447.312)">
        <path id="Path_1430" data-name="Path 1430" d="M-897.506,1504.976a3.9,3.9,0,0,1,3.716-.4,4.157,4.157,0,0,1,2.39,2.839,4.713,4.713,0,0,1,.063,2.18c-.1.461.61.657.708.2a5.452,5.452,0,0,0-.9-4.333,4.715,4.715,0,0,0-3.941-1.907,4.343,4.343,0,0,0-2.4.794.377.377,0,0,0-.132.5.37.37,0,0,0,.5.132Z" transform="translate(898.057 -1503.545)" fill="#231f20"/>
      </g>
    </g>
  </g>
</svg>
