<svg xmlns="http://www.w3.org/2000/svg" width="80.115" height="77.918" viewBox="0 0 80.115 77.918">
  <g id="Group_108" data-name="Group 108" transform="translate(-809.198 -380.08)">
    <g id="Group_98" data-name="Group 98" transform="translate(2074.706 -1270.274)">
      <circle id="Ellipse_25" data-name="Ellipse 25" cx="13.385" cy="13.385" r="13.385" transform="matrix(0.161, -0.987, 0.987, 0.161, -1219.993, 1700.917)" fill="#fff"/>
      <circle id="Ellipse_26" data-name="Ellipse 26" cx="13.385" cy="13.385" r="13.385" transform="matrix(0.231, -0.973, 0.973, 0.231, -1264.779, 1699.788)" fill="#fff"/>
      <path id="Path_1440" data-name="Path 1440" d="M-1235.095,1708.2a13.317,13.317,0,0,1,2.168,7.3,13.385,13.385,0,0,1-13.385,13.385,13.318,13.318,0,0,1-7.894-2.578,13.37,13.37,0,0,0,11.217,6.086,13.386,13.386,0,0,0,13.385-13.385A13.363,13.363,0,0,0-1235.095,1708.2Z" transform="translate(-5.695 -29.15)" fill="#efefef"/>
      <path id="Path_1441" data-name="Path 1441" d="M-1146.338,1708.2a13.319,13.319,0,0,1,2.168,7.3,13.385,13.385,0,0,1-13.385,13.385,13.319,13.319,0,0,1-7.894-2.578,13.37,13.37,0,0,0,11.217,6.086,13.386,13.386,0,0,0,13.385-13.385A13.363,13.363,0,0,0-1146.338,1708.2Z" transform="translate(-50.419 -29.15)" fill="#efefef"/>
      <g id="Group_93" data-name="Group 93" transform="translate(-1262.661 1675.861)">
        <path id="Path_1442" data-name="Path 1442" d="M-1245.77,1729.769a14.016,14.016,0,0,1-14-14,14.015,14.015,0,0,1,14-14,14.015,14.015,0,0,1,14,14A14.016,14.016,0,0,1-1245.77,1729.769Zm0-26.771a12.785,12.785,0,0,0-12.771,12.77,12.786,12.786,0,0,0,12.771,12.771,12.786,12.786,0,0,0,12.77-12.771A12.785,12.785,0,0,0-1245.77,1703Z" transform="translate(1259.77 -1701.769)" fill="#231f20"/>
      </g>
      <path id="Path_1443" data-name="Path 1443" d="M-1231.614,1735.517A6.485,6.485,0,0,1-1238.1,1742a6.485,6.485,0,0,1-6.485-6.485,6.485,6.485,0,0,1,6.485-6.485A6.485,6.485,0,0,1-1231.614,1735.517Z" transform="translate(-10.543 -39.646)" fill="#231f20"/>
      <path id="Path_1444" data-name="Path 1444" d="M-1234.764,1737.036a2.654,2.654,0,0,1-2.654,2.654,2.654,2.654,0,0,1-2.654-2.654,2.654,2.654,0,0,1,2.654-2.655A2.654,2.654,0,0,1-1234.764,1737.036Z" transform="translate(-12.817 -42.341)" fill="#fff"/>
      <g id="Group_94" data-name="Group 94" transform="translate(-1218.629 1675.861)">
        <path id="Path_1445" data-name="Path 1445" d="M-1157.014,1729.769a14.016,14.016,0,0,1-14-14,14.016,14.016,0,0,1,14-14,14.016,14.016,0,0,1,14,14A14.016,14.016,0,0,1-1157.014,1729.769Zm0-26.771a12.785,12.785,0,0,0-12.77,12.77,12.785,12.785,0,0,0,12.77,12.771,12.786,12.786,0,0,0,12.771-12.771A12.785,12.785,0,0,0-1157.014,1703Z" transform="translate(1171.014 -1701.769)" fill="#231f20"/>
      </g>
      <circle id="Ellipse_27" data-name="Ellipse 27" cx="6.485" cy="6.485" r="6.485" transform="translate(-1212.342 1700.832) rotate(-77.741)" fill="#231f20"/>
      <path id="Path_1446" data-name="Path 1446" d="M-1146.045,1737.036a2.654,2.654,0,0,1-2.654,2.654,2.654,2.654,0,0,1-2.654-2.654,2.654,2.654,0,0,1,2.654-2.655A2.654,2.654,0,0,1-1146.045,1737.036Z" transform="translate(-57.522 -42.341)" fill="#fff"/>
      <path id="Path_1447" data-name="Path 1447" d="M-1264.434,1663.614c2.817,2,3.68-3.058,10.148-6.149,5.394-2.578,9.64-.594,10.1-2.987s-4.794-4.288-12.842-.933C-1263.011,1656.042-1267.7,1661.3-1264.434,1663.614Z" transform="translate(0 -0.695)" fill="#231f20"/>
      <path id="Path_1448" data-name="Path 1448" d="M-1128.547,1662.821c-2.993,2.147-4-3.212-10.991-6.431-5.831-2.685-10.359-.537-10.894-3.073s5.08-4.6,13.773-1.115C-1130.192,1654.795-1125.073,1660.328-1128.547,1662.821Z" transform="translate(-57.968)" fill="#231f20"/>
      <g id="Group_95" data-name="Group 95" transform="translate(-1248.478 1713.054)">
        <path id="Path_1449" data-name="Path 1449" d="M-1188.923,1788.51a.877.877,0,0,1-.751-.421,18.84,18.84,0,0,0-4.366-4.484,26,26,0,0,0-14.352-5.066c-13.226-.794-21.13,9.516-21.208,9.621a.878.878,0,0,1-1.229.174.878.878,0,0,1-.175-1.23,27.651,27.651,0,0,1,5.992-5.491,26.586,26.586,0,0,1,16.726-4.827,27.73,27.73,0,0,1,15.381,5.475,20.107,20.107,0,0,1,4.732,4.914.878.878,0,0,1-.293,1.207A.871.871,0,0,1-1188.923,1788.51Z" transform="translate(1231.181 -1776.74)" fill="#231f20"/>
      </g>
      <g id="Group_96" data-name="Group 96" transform="translate(-1251.886 1720.208)">
        <path id="Path_1450" data-name="Path 1450" d="M-1236.807,1791.367a8.411,8.411,0,0,0-.637,7.533.453.453,0,0,0,.54.306.442.442,0,0,0,.307-.54,7.583,7.583,0,0,1,.548-6.856c.3-.481-.46-.923-.758-.443Z" transform="translate(1238.051 -1791.16)" fill="#231f20"/>
      </g>
      <g id="Group_97" data-name="Group 97" transform="translate(-1204.931 1720.359)">
        <path id="Path_1451" data-name="Path 1451" d="M-1143.271,1792.209a6.369,6.369,0,0,1,1.614,6.378c-.169.541.679.772.847.234a7.254,7.254,0,0,0-1.84-7.232c-.406-.395-1.027.226-.621.62Z" transform="translate(1143.404 -1791.463)" fill="#231f20"/>
      </g>
    </g>
  </g>
</svg>
