<svg xmlns="http://www.w3.org/2000/svg" width="113.217" height="77.918" viewBox="0 0 113.217 77.918">
  <g id="Group_107" data-name="Group 107" transform="translate(-739.939 -297.08)">
    <g id="Group_106" data-name="Group 106" transform="translate(2105.728 -945.198)">
      <path id="Path_1452" data-name="Path 1452" d="M-1217.4,1303.6s-.633-19.7-19.6-20.67c-21.473-1.1-20.155,21.216-20.155,21.216s5.947-2.964,18.565-2.618C-1224.13,1301.923-1217.4,1303.6-1217.4,1303.6Z" transform="translate(-35.971 -13.449)" fill="#fff"/>
      <path id="Path_1453" data-name="Path 1453" d="M-1217.033,1251.859c-.973-4.123-5.866-.171-14.327-2.574-7.054-2-9.353-7.274-11.721-5.449s.933,7.835,11.061,11.276C-1224.484,1257.672-1215.9,1256.644-1217.033,1251.859Z" transform="translate(-40.393 -0.391)" fill="#231f20"/>
      <path id="Path_1454" data-name="Path 1454" d="M-1357.96,1252.818c.613-4.191,5.83-.678,14.051-3.8,6.855-2.607,8.689-8.056,11.206-6.443s-.251,7.886-10.044,12.191C-1350.033,1257.965-1358.67,1257.683-1357.96,1252.818Z" transform="translate(-2.579 0)" fill="#231f20"/>
      <path id="Path_1455" data-name="Path 1455" d="M-1364.6,1302.64s.9-19.692,19.871-20.408c21.486-.811,19.871,21.482,19.871,21.482s-5.908-3.043-18.528-2.864C-1357.844,1301.055-1364.6,1302.64-1364.6,1302.64Z" transform="translate(-0.393 -13.224)" fill="#fff"/>
      <g id="Group_99" data-name="Group 99" transform="translate(-1271.838 1269.321)">
        <path id="Path_1456" data-name="Path 1456" d="M-1225.322,1282.71c10.782,3.922,11.359,16.3,11.322,19.529a26.842,26.842,0,0,1,6.731,1.965S-1205.749,1283.193-1225.322,1282.71Z" transform="translate(1225.322 -1282.71)" fill="#efefef"/>
      </g>
      <g id="Group_100" data-name="Group 100" transform="translate(-1343.305 1268.992)">
        <path id="Path_1457" data-name="Path 1457" d="M-1332.173,1282.218c10.782,3.922,11.359,16.3,11.321,19.528a26.836,26.836,0,0,1,6.732,1.966S-1312.6,1282.7-1332.173,1282.218Z" transform="translate(1332.173 -1282.218)" fill="#efefef"/>
      </g>
      <path id="Path_1458" data-name="Path 1458" d="M-1329.619,1302.119a10.4,10.4,0,0,0-10.4-10.4,10.4,10.4,0,0,0-10.4,10.4,10.422,10.422,0,0,0,.3,2.465c3.062-.248,6.862-.45,11.436-.515a64.705,64.705,0,0,1,8.795.441A10.436,10.436,0,0,0-1329.619,1302.119Z" transform="translate(-5.088 -16.372)" fill="#231f20"/>
      <path id="Path_1459" data-name="Path 1459" d="M-1336.738,1299.673a3.359,3.359,0,0,1-3.36,3.359,3.359,3.359,0,0,1-3.359-3.359,3.36,3.36,0,0,1,3.359-3.36A3.36,3.36,0,0,1-1336.738,1299.673Z" transform="translate(-7.395 -17.894)" fill="#fff"/>
      <path id="Path_1460" data-name="Path 1460" d="M-1242.912,1302.683a10.4,10.4,0,0,1,10.54-10.264,10.4,10.4,0,0,1,10.264,10.54,10.433,10.433,0,0,1-.329,2.461c-3.059-.288-6.856-.542-11.428-.668a64.719,64.719,0,0,0-8.8.324A10.424,10.424,0,0,1-1242.912,1302.683Z" transform="translate(-40.69 -16.604)" fill="#231f20"/>
      <path id="Path_1461" data-name="Path 1461" d="M-1228.74,1300.377a3.359,3.359,0,0,0,3.314,3.4,3.359,3.359,0,0,0,3.4-3.314,3.36,3.36,0,0,0-3.314-3.4A3.36,3.36,0,0,0-1228.74,1300.377Z" transform="translate(-45.384 -18.142)" fill="#fff"/>
      <g id="Group_101" data-name="Group 101" transform="translate(-1335.582 1301.526)">
        <path id="Path_1462" data-name="Path 1462" d="M-1260.081,1345.61a1.079,1.079,0,0,1-.893-.473,25.571,25.571,0,0,0-6.765-6.084c-4.253-2.758-11.562-6.037-22.264-6.037h-.136c-16.358.043-28.533,11.857-28.654,11.976a1.078,1.078,0,0,1-1.523-.01,1.077,1.077,0,0,1,.009-1.523,46.72,46.72,0,0,1,8.534-6.29,43.75,43.75,0,0,1,21.628-6.307h.142c11.292,0,19.031,3.5,23.54,6.452a27.06,27.06,0,0,1,7.273,6.616,1.077,1.077,0,0,1-.288,1.5A1.07,1.07,0,0,1-1260.081,1345.61Z" transform="translate(1320.626 -1330.861)" fill="#231f20"/>
      </g>
      <g id="Group_102" data-name="Group 102" transform="translate(-1339.763 1310.304)">
        <path id="Path_1463" data-name="Path 1463" d="M-1325.352,1344.239a10.315,10.315,0,0,0-.781,9.241.557.557,0,0,0,.663.376.542.542,0,0,0,.376-.663,9.3,9.3,0,0,1,.672-8.411c.367-.591-.564-1.133-.93-.544Z" transform="translate(1326.878 -1343.985)" fill="#231f20"/>
      </g>
      <g id="Group_103" data-name="Group 103" transform="translate(-1273.973 1310.488)">
        <path id="Path_1464" data-name="Path 1464" d="M-1228.351,1345.176a7.813,7.813,0,0,1,1.98,7.824c-.207.663.833.947,1.039.286a8.9,8.9,0,0,0-2.257-8.872c-.5-.484-1.26.278-.762.762Z" transform="translate(1228.514 -1344.26)" fill="#231f20"/>
      </g>
      <path id="Path_1465" data-name="Path 1465" d="M-1328.427,1304.028a2.837,2.837,0,0,0-.912-.631,10.391,10.391,0,0,0-1.673-.161c-1.256-.229-1.989-1.535-3.079-2.2a4.289,4.289,0,0,0-5.083.945c-.805.819-1.527,1.973-2.675,2.012a8.231,8.231,0,0,1-1.6-.327c-1.374-.23-2.673.616-4.026.949a5.62,5.62,0,0,1-3.891-.464c-1.435-.744-2.83-2.163-4.379-1.7-1.477.443-2.056,2.392-3.506,2.917-1.041.377-2.273-.088-3.272.391-1.019.488-1.375,1.733-1.623,2.835l19.583-1.647,19.1,2.09C-1325.441,1307.037-1326.948,1305.377-1328.427,1304.028Z" transform="translate(-0.543 -19.299)" fill="#7ecdec"/>
      <g id="Group_104" data-name="Group 104" transform="translate(-1365.789 1268.192)">
        <path id="Path_1466" data-name="Path 1466" d="M-1325.252,1304.116a.792.792,0,0,1-.364-.088c-.057-.029-5.927-2.95-18.154-2.776-14.176.2-20.976,1.754-21.043,1.769a.794.794,0,0,1-.689-.162.794.794,0,0,1-.286-.648,27.29,27.29,0,0,1,2.907-10.265c2.465-4.761,7.543-10.517,17.727-10.9,6.43-.243,11.5,1.51,15.073,5.208,6.311,6.533,5.653,16.7,5.622,17.126a.8.8,0,0,1-.4.636A.791.791,0,0,1-1325.252,1304.116Zm-17.453-4.462c9.046,0,14.478,1.63,16.682,2.473-.025-2.768-.566-9.979-5.208-14.778-3.245-3.354-7.91-4.942-13.863-4.717-7.563.286-13.072,3.665-16.375,10.044a26.451,26.451,0,0,0-2.632,8.579,126.435,126.435,0,0,1,20.309-1.594C-1343.425,1299.657-1343.061,1299.654-1342.705,1299.654Z" transform="translate(1365.789 -1281.022)" fill="#231f20"/>
      </g>
      <path id="Path_1467" data-name="Path 1467" d="M-1252.4,1304.971c1.459-.187,2.912.633,4.369.433,1.338-.185,2.4-1.179,3.588-1.811a7.065,7.065,0,0,1,4.461-.716c2.132.364,4.141,1.712,6.282,1.4,1.908-.282,3.361-1.812,5.093-2.661a7.657,7.657,0,0,1,7.234.341,7.655,7.655,0,0,1,3.585,6.292.816.816,0,0,1-.122.53.825.825,0,0,1-.669.216,16.866,16.866,0,0,1-2.625-.3,116.622,116.622,0,0,0-22.817-1.086,50.716,50.716,0,0,0-6.088.5c-2.063.326-3.962,1.329-5.942,1.7A4.833,4.833,0,0,1-1252.4,1304.971Z" transform="translate(-36.331 -19.402)" fill="#7ecdec"/>
      <g id="Group_105" data-name="Group 105" transform="translate(-1293.933 1268.645)">
        <path id="Path_1468" data-name="Path 1468" d="M-1257.542,1304.544a.792.792,0,0,1-.4-.108.792.792,0,0,1-.395-.64c-.025-.429-.548-10.6,5.848-17.05,3.621-3.651,8.716-5.337,15.14-5.007,10.179.52,15.179,6.343,17.581,11.136a27.3,27.3,0,0,1,2.771,10.3.794.794,0,0,1-.3.644.8.8,0,0,1-.691.154c-.067-.017-6.846-1.659-21.019-2.049-12.224-.335-18.132,2.507-18.19,2.536A.8.8,0,0,1-1257.542,1304.544Zm18.656-21.255c-5.261,0-9.45,1.534-12.465,4.57-4.706,4.737-5.342,11.94-5.4,14.707,2.3-.845,8.1-2.5,17.8-2.229a126.53,126.53,0,0,1,20.285,1.863,26.518,26.518,0,0,0-2.541-8.661c-3.222-6.392-8.678-9.828-16.217-10.213Q-1238.17,1283.289-1238.887,1283.29Z" transform="translate(1258.356 -1281.699)" fill="#231f20"/>
      </g>
    </g>
  </g>
</svg>
