<svg xmlns="http://www.w3.org/2000/svg" width="100.448" height="77.918" viewBox="0 0 100.448 77.918">
  <g id="Group_111" data-name="Group 111" transform="translate(-794.344 -579.2)">
    <g id="Group_110" data-name="Group 110">
      <g id="Group_92" data-name="Group 92" transform="translate(2087.922 -848.835)">
        <circle id="Ellipse_19" data-name="Ellipse 19" cx="16.911" cy="16.911" r="16.911" transform="translate(-1236.782 1472.929) rotate(-72.081)" fill="#fff"/>
        <circle id="Ellipse_20" data-name="Ellipse 20" cx="16.911" cy="16.911" r="16.911" transform="translate(-1291.482 1474.583) rotate(-76.629)" fill="#fff"/>
        <path id="Path_1431" data-name="Path 1431" d="M-1253.209,1468.015a16.824,16.824,0,0,1,2.739,9.222,16.911,16.911,0,0,1-16.911,16.91,16.829,16.829,0,0,1-9.974-3.256,16.892,16.892,0,0,0,14.172,7.688,16.91,16.91,0,0,0,16.911-16.911A16.884,16.884,0,0,0-1253.209,1468.015Z" transform="translate(-7.965 -19.627)" fill="#efefef"/>
        <path id="Path_1432" data-name="Path 1432" d="M-1143.933,1468.015a16.825,16.825,0,0,1,2.739,9.222,16.91,16.91,0,0,1-16.911,16.91,16.826,16.826,0,0,1-9.973-3.256,16.891,16.891,0,0,0,14.172,7.688,16.91,16.91,0,0,0,16.91-16.911A16.884,16.884,0,0,0-1143.933,1468.015Z" transform="translate(-61.611 -19.627)" fill="#efefef"/>
        <g id="Group_87" data-name="Group 87" transform="translate(-1288.806 1444.354)">
          <path id="Path_1433" data-name="Path 1433" d="M-1266.517,1495.467a17.707,17.707,0,0,1-17.687-17.687,17.707,17.707,0,0,1,17.687-17.687,17.707,17.707,0,0,1,17.688,17.687A17.708,17.708,0,0,1-1266.517,1495.467Zm0-33.821a16.152,16.152,0,0,0-16.134,16.134,16.152,16.152,0,0,0,16.134,16.134,16.152,16.152,0,0,0,16.134-16.134A16.152,16.152,0,0,0-1266.517,1461.646Z" transform="translate(1284.204 -1460.092)" fill="#231f20"/>
        </g>
        <circle id="Ellipse_21" data-name="Ellipse 21" cx="8.193" cy="8.193" r="8.193" transform="matrix(0.612, -0.791, 0.791, 0.612, -1282.613, 1465.928)" fill="#231f20"/>
        <circle id="Ellipse_22" data-name="Ellipse 22" cx="3.353" cy="3.353" r="3.353" transform="translate(-1276.484 1459.622)" fill="#fff"/>
        <g id="Group_88" data-name="Group 88" transform="translate(-1233.177 1444.354)">
          <path id="Path_1434" data-name="Path 1434" d="M-1157.242,1495.467a17.707,17.707,0,0,1-17.687-17.687,17.707,17.707,0,0,1,17.687-17.687,17.707,17.707,0,0,1,17.688,17.687A17.707,17.707,0,0,1-1157.242,1495.467Zm0-33.821a16.152,16.152,0,0,0-16.134,16.134,16.152,16.152,0,0,0,16.134,16.134,16.152,16.152,0,0,0,16.134-16.134A16.152,16.152,0,0,0-1157.242,1461.646Z" transform="translate(1174.929 -1460.092)" fill="#231f20"/>
        </g>
        <circle id="Ellipse_23" data-name="Ellipse 23" cx="8.193" cy="8.193" r="8.193" transform="translate(-1227.076 1464.462) rotate(-45)" fill="#231f20"/>
        <circle id="Ellipse_24" data-name="Ellipse 24" cx="3.353" cy="3.353" r="3.353" transform="translate(-1220.854 1459.622)" fill="#fff"/>
        <path id="Path_1435" data-name="Path 1435" d="M-1292.759,1439.459c2.863,3.291,5.429-2.657,14.292-4.523,7.391-1.556,12.012,2.146,13.3-.654s-4.607-6.694-15.488-4.974C-1288.755,1430.587-1296.082,1435.639-1292.759,1439.459Z" transform="translate(0 -0.417)" fill="#231f20"/>
        <path id="Path_1436" data-name="Path 1436" d="M-1124.52,1439.572c-3.038,3.13-5.276-2.949-14.025-5.3-7.295-1.956-12.111,1.488-13.24-1.377s4.965-6.433,15.736-4.123C-1128.034,1430.5-1120.993,1435.939-1124.52,1439.572Z" transform="translate(-69.545)" fill="#231f20"/>
        <g id="Group_89" data-name="Group 89" transform="translate(-1272.229 1489.156)">
          <path id="Path_1437" data-name="Path 1437" d="M-1222.506,1564.894h-.036a35.736,35.736,0,0,1-21.665-7.286,33.228,33.228,0,0,1-7.249-7.323,1.11,1.11,0,0,1,.314-1.537,1.109,1.109,0,0,1,1.537.313,31.722,31.722,0,0,0,6.806,6.829,33.53,33.53,0,0,0,20.26,6.785h.034a34.416,34.416,0,0,0,21.308-6.99,28.886,28.886,0,0,0,6.685-7.047,1.11,1.11,0,0,1,1.521-.383,1.108,1.108,0,0,1,.385,1.519,30.445,30.445,0,0,1-7.155,7.605A36.6,36.6,0,0,1-1222.506,1564.894Z" transform="translate(1251.64 -1548.098)" fill="#231f20"/>
        </g>
        <g id="Group_90" data-name="Group 90" transform="translate(-1276.344 1486.413)">
          <path id="Path_1438" data-name="Path 1438" d="M-1258.641,1548.783a6.415,6.415,0,0,1,4.126-4.985c.712-.216.821-1.243-.295-1.07a7.885,7.885,0,0,0-4.9,5.761.569.569,0,0,0,.387.682.56.56,0,0,0,.683-.387Z" transform="translate(1259.724 -1542.708)" fill="#231f20"/>
        </g>
        <g id="Group_91" data-name="Group 91" transform="translate(-1214.299 1486.1)">
          <path id="Path_1439" data-name="Path 1439" d="M-1137.439,1543.19a5.336,5.336,0,0,1,3.3,5.711.571.571,0,0,0,.387.683.56.56,0,0,0,.683-.388,6.471,6.471,0,0,0-4.074-7.076.559.559,0,0,0-.682.387.566.566,0,0,0,.387.682Z" transform="translate(1137.848 -1542.094)" fill="#231f20"/>
        </g>
      </g>
    </g>
  </g>
</svg>
